<svg width="100" height="80" viewBox="0 0 100 80" fill="none" xmlns="http://www.w3.org/2000/svg">
<g clip-path="url(#clip0_89_102)">
<path d="M84.9342 19.702V12.0527H75.3725V0H68.8508V12.0527H60.6314V0H54.1098V12.0527H45.8904V0H39.3687V12.0527H31.1494V0H24.6277V12.0527H15.0658V19.702H0V24.9194H15.0658V31.4948H0V36.7122H15.0658V43.2877H0V48.505H15.0658V55.0805H0V60.2978H15.0658V67.9472H24.6275V80H31.1492V67.9473H39.3686V80H45.8902V67.9473H54.1096V80H60.6313V67.9473H68.8506V80H75.3723V67.9473H84.934V60.298H100V55.0806H84.9342V48.5052H100V43.2878H84.9342V36.7123H100V31.495H84.9342V24.9195H100V19.7023H84.9342V19.702ZM73.3932 44.1358C73.3932 47.7491 70.6098 50.8505 66.6689 52.1441C66.3994 56.3516 62.0359 59.7083 56.7107 59.7083C54.1285 59.7083 51.7727 58.9189 49.9998 57.6263C48.227 58.9189 45.8711 59.7083 43.2889 59.7083C37.9637 59.7083 33.6002 56.3516 33.3307 52.1441C29.3898 50.8503 26.6064 47.7489 26.6064 44.1358C26.6064 42.6723 27.0656 41.2564 27.9232 39.9986C27.0842 38.7694 26.6064 37.3606 26.6064 35.8644C26.6064 32.2842 29.3787 29.1608 33.3303 27.8583C33.5984 23.6497 37.9627 20.2917 43.2887 20.2917C45.8709 20.2917 48.2268 21.0811 49.9996 22.3738C51.7725 21.0811 54.1283 20.2917 56.7105 20.2917C62.0367 20.2917 66.401 23.6497 66.6689 27.8583C70.6209 29.1608 73.3928 32.2842 73.3928 35.8644C73.3928 37.3608 72.9152 38.7695 72.076 39.9986C72.9342 41.2566 73.3932 42.6725 73.3932 44.1358Z" fill="white"/>
<path d="M43.2891 25.509C41.3869 25.509 39.8391 26.7472 39.8391 28.269C39.8391 29.4139 40.7387 30.4531 42.0775 30.8548L39.7871 35.7398C37.9096 35.1764 36.3324 34.1787 35.2045 32.924C33.9584 33.5301 33.1281 34.6289 33.1281 35.8642C33.1281 37.759 35.0551 39.3006 37.4234 39.3006V44.5179C35.9053 44.5179 34.4598 44.2653 33.1471 43.8115C33.1344 43.9189 33.1279 44.027 33.1279 44.1359C33.1279 46.0308 35.0547 47.5722 37.4232 47.5722C38.6518 47.5722 39.7828 47.1706 40.6084 46.4414L45.4422 49.944C43.9805 51.2351 42.0715 52.1303 39.9902 52.5384C40.4229 53.6676 41.7377 54.4911 43.2889 54.4911C45.1912 54.4911 46.7389 53.2529 46.7389 51.7311V28.269C46.7391 26.7472 45.1916 25.509 43.2891 25.509Z" fill="white"/>
<path d="M62.5764 44.5179V39.3006C64.9449 39.3006 66.8719 37.759 66.8719 35.8642C66.8719 34.6287 66.0416 33.53 64.7955 32.924C63.6678 34.1789 62.0904 35.1764 60.2129 35.7398L57.9224 30.8548C59.2613 30.4531 60.1609 29.4139 60.1609 28.269C60.1609 26.7472 58.6133 25.509 56.7109 25.509C54.8086 25.509 53.2609 26.7472 53.2609 28.269V51.7309C53.2609 53.2528 54.8086 54.4909 56.7109 54.4909C58.2623 54.4909 59.5767 53.6673 60.0096 52.5383C57.9283 52.1301 56.0193 51.235 54.5576 49.9439L59.3914 46.4412C60.2168 47.1704 61.348 47.572 62.5764 47.572C64.9449 47.572 66.8719 46.0304 66.8719 44.1358C66.8719 44.0268 66.8654 43.9187 66.8527 43.8114C65.54 44.2651 64.0945 44.5179 62.5764 44.5179Z" fill="white"/>
</g>
<defs>
<clipPath id="clip0_89_102">
<rect width="100" height="80" fill="white"/>
</clipPath>
</defs>
</svg>
