<svg width="70" height="70" viewBox="0 0 70 70" fill="none" xmlns="http://www.w3.org/2000/svg">
<path fill-rule="evenodd" clip-rule="evenodd" d="M52.5 17.5V52.5H17.5V17.5H52.5ZM32.2314 26.25H28.8228L22.3513 43.75H25.4265L26.6483 40.3289H34.395L35.5906 43.75H38.851L32.2314 26.25ZM44.3097 26.25H41.2469V43.75H44.3097V26.25ZM30.5012 29.1861L33.552 37.9166H27.4989L30.5012 29.1861ZM55.4167 43.75H61.25V49.5833H55.4167V43.75ZM20.4167 55.4167H26.25V61.25H20.4167V55.4167ZM32.0833 55.4167H37.9167V61.25H32.0833V55.4167ZM20.4167 8.75H26.25V14.5833H20.4167V8.75ZM43.75 55.4167H49.5833V61.25H43.75V55.4167ZM32.0833 8.75H37.9167V14.5833H32.0833V8.75ZM43.75 8.75H49.5833V14.5833H43.75V8.75ZM55.4167 32.0833H61.25V37.9167H55.4167V32.0833ZM8.75 43.75H14.5833V49.5833H8.75V43.75ZM55.4167 20.4167H61.25V26.25H55.4167V20.4167ZM8.75 32.0833H14.5833V37.9167H8.75V32.0833ZM8.75 20.4167H14.5833V26.25H8.75V20.4167Z" fill="white"/>
</svg>
