<svg width="100" height="100" viewBox="0 0 100 100" fill="none" xmlns="http://www.w3.org/2000/svg">
<path d="M40.625 35.0219L38.1469 37.5H43.1031L40.625 35.0219Z" fill="white"/>
<path d="M59.375 35.0219L56.8969 37.5H61.8531L59.375 35.0219Z" fill="white"/>
<path d="M39.0625 85.9375H7.8125V89.0625H40.625C41.0394 89.0625 41.4368 88.8979 41.7299 88.6049C42.0229 88.3118 42.1875 87.9144 42.1875 87.5V48.4375H39.0625V85.9375Z" fill="white"/>
<path d="M57.8125 87.5C57.8125 87.9144 57.9771 88.3118 58.2701 88.6049C58.5632 88.8979 58.9606 89.0625 59.375 89.0625H92.1875V85.9375H60.9375V48.4375H57.8125V87.5Z" fill="white"/>
<path d="M90.1672 61.3953C89.9487 61.1768 89.6703 61.0281 89.3672 60.9678C89.0642 60.9075 88.7501 60.9385 88.4646 61.0567C88.1791 61.175 87.9351 61.3752 87.7634 61.6321C87.5917 61.889 87.5001 62.191 87.5 62.5V67.1875H67.1875V51.5625H78.125C83.0978 51.5776 87.8729 49.6167 91.3999 46.111C94.9269 42.6054 96.9169 37.8423 96.932 32.8695C96.9472 27.8967 94.9862 23.1215 91.4806 19.5945C87.975 16.0675 83.2119 14.0776 78.2391 14.0625C76.9501 11.0221 74.8469 8.39645 72.1613 6.4748C69.4756 4.55315 66.3117 3.41006 63.018 3.17142C59.7243 2.93279 56.4286 3.60788 53.494 5.12233C50.5594 6.63677 48.0997 8.93182 46.3859 11.7547C43.7433 9.63908 40.5568 8.31303 37.1935 7.92924C33.8302 7.54544 30.4268 8.11952 27.3755 9.58533C24.3242 11.0512 21.749 13.3491 19.9465 16.2145C18.1441 19.0798 17.1877 22.3961 17.1875 25.7812V29.6875H14.0625C11.1617 29.6875 8.3797 30.8398 6.32852 32.891C4.27734 34.9422 3.125 37.7242 3.125 40.625C3.125 43.5258 4.27734 46.3078 6.32852 48.3589C8.3797 50.4101 11.1617 51.5625 14.0625 51.5625H32.8125V67.1875H12.5V62.5C12.4999 62.191 12.4083 61.889 12.2366 61.6321C12.0649 61.3752 11.8209 61.175 11.5354 61.0567C11.2499 60.9385 10.9358 60.9075 10.6328 60.9678C10.3297 61.0281 10.0513 61.1768 9.83281 61.3953L3.58281 67.6453C3.28989 67.9383 3.12533 68.3356 3.12533 68.75C3.12533 69.1643 3.28989 69.5616 3.58281 69.8547L9.83281 76.1047C10.0513 76.3231 10.3297 76.4719 10.6328 76.5321C10.9358 76.5924 11.2499 76.5615 11.5354 76.4432C11.8209 76.325 12.0649 76.1248 12.2366 75.8679C12.4083 75.611 12.4999 75.309 12.5 75V70.3125H34.375C34.7894 70.3125 35.1868 70.1479 35.4799 69.8548C35.7729 69.5618 35.9375 69.1644 35.9375 68.75V50C35.9375 49.5856 35.7729 49.1881 35.4799 48.8951C35.1868 48.6021 34.7894 48.4375 34.375 48.4375H39.0625V40.625H34.375C34.066 40.6249 33.764 40.5332 33.5071 40.3615C33.2502 40.1898 33.05 39.9458 32.9318 39.6604C32.8135 39.3749 32.7826 39.0608 32.8428 38.7577C32.9031 38.4547 33.0519 38.1763 33.2703 37.9578L39.5203 31.7078C39.8133 31.4149 40.2107 31.2503 40.625 31.2503C41.0393 31.2503 41.4367 31.4149 41.7297 31.7078L47.9797 37.9578C48.1981 38.1763 48.3469 38.4547 48.4072 38.7577C48.4674 39.0608 48.4365 39.3749 48.3182 39.6604C48.2 39.9458 47.9998 40.1898 47.7429 40.3615C47.486 40.5332 47.184 40.6249 46.875 40.625H42.1875V48.4375H57.8125V40.625H53.125C52.816 40.6249 52.514 40.5332 52.2571 40.3615C52.0002 40.1898 51.8 39.9458 51.6817 39.6604C51.5635 39.3749 51.5326 39.0608 51.5928 38.7577C51.6531 38.4547 51.8019 38.1763 52.0203 37.9578L58.2703 31.7078C58.5633 31.4149 58.9607 31.2503 59.375 31.2503C59.7893 31.2503 60.1867 31.4149 60.4797 31.7078L66.7297 37.9578C66.9481 38.1763 67.0969 38.4547 67.1572 38.7577C67.2174 39.0608 67.1865 39.3749 67.0682 39.6604C66.95 39.9458 66.7498 40.1898 66.4929 40.3615C66.236 40.5332 65.934 40.6249 65.625 40.625H60.9375V48.4375H65.625C65.2106 48.4375 64.8132 48.6021 64.5201 48.8951C64.2271 49.1881 64.0625 49.5856 64.0625 50V68.75C64.0625 69.1644 64.2271 69.5618 64.5201 69.8548C64.8132 70.1479 65.2106 70.3125 65.625 70.3125H87.5V75C87.5001 75.309 87.5917 75.611 87.7634 75.8679C87.9351 76.1248 88.1791 76.325 88.4646 76.4432C88.7501 76.5615 89.0642 76.5924 89.3672 76.5321C89.6703 76.4719 89.9487 76.3231 90.1672 76.1047L96.4172 69.8547C96.7101 69.5616 96.8747 69.1643 96.8747 68.75C96.8747 68.3356 96.7101 67.9383 96.4172 67.6453L90.1672 61.3953ZM87.5 37.5H84.375V34.375H87.5V37.5ZM78.125 21.875C80.6106 21.8774 82.9938 22.866 84.7514 24.6236C86.509 26.3812 87.4975 28.7643 87.5 31.25H84.375C84.375 29.5924 83.7165 28.0027 82.5444 26.8305C81.3723 25.6584 79.7826 25 78.125 25V21.875ZM9.375 71.2281L6.89687 68.75L9.375 66.2718V71.2281ZM90.625 71.2281V66.2718L93.1031 68.75L90.625 71.2281Z" fill="white"/>
</svg>
