<svg width="28" height="28" viewBox="0 0 28 28" fill="none" xmlns="http://www.w3.org/2000/svg">
<path d="M15.3337 8.1665C15.3338 7.59198 15.5622 7.04053 15.9684 6.63428C16.3746 6.22833 16.9254 6.00057 17.4997 6.00049H19.9997V3.3335H17.4997C16.2179 3.33358 14.9891 3.84316 14.0827 4.74951C13.1764 5.65586 12.6668 6.88474 12.6667 8.1665V11.6665C12.6667 12.2188 12.219 12.6665 11.6667 12.6665H9.16669V15.3335H11.6667C12.219 15.3335 12.6667 15.7812 12.6667 16.3335V24.6665H15.3337V16.3335C15.3337 15.7812 15.7814 15.3335 16.3337 15.3335H19.0524L19.7194 12.6665H16.3337C15.7814 12.6665 15.3337 12.2188 15.3337 11.6665V8.1665ZM17.3337 10.6665H20.9997C21.3075 10.6665 21.5983 10.8087 21.7878 11.0513C21.9773 11.294 22.0451 11.6109 21.9704 11.9097L20.8034 16.5757C20.6921 17.0207 20.2924 17.3333 19.8337 17.3335H17.3337V25.6665C17.3337 26.2187 16.8858 26.6663 16.3337 26.6665H11.6667C11.1144 26.6665 10.6667 26.2188 10.6667 25.6665V17.3335H8.16669C7.6144 17.3335 7.16669 16.8858 7.16669 16.3335V11.6665C7.16686 11.1144 7.61451 10.6665 8.16669 10.6665H10.6667V8.1665C10.6668 6.35431 11.3862 4.61589 12.6677 3.33447C13.9491 2.05305 15.6875 1.33358 17.4997 1.3335H20.9997C21.552 1.3335 21.9997 1.78121 21.9997 2.3335V7.00049C21.9995 7.55262 21.5519 8.00049 20.9997 8.00049H17.4997C17.4556 8.00057 17.4137 8.01814 17.3825 8.04932C17.3513 8.0805 17.3338 8.12242 17.3337 8.1665V10.6665Z" fill="#3B71FE"/>
</svg>
