<svg width="28" height="28" viewBox="0 0 28 28" fill="none" xmlns="http://www.w3.org/2000/svg">
<path d="M17.0055 2.89732C18.1972 2.44247 19.5006 2.36504 20.738 2.67466C21.7532 2.92876 22.684 3.43381 23.4479 4.13853C24.4447 3.78207 25.39 3.29369 26.2565 2.68247L26.8327 3.49888L27.8053 3.73619C27.4065 5.37383 26.5992 6.8802 25.4655 8.11997C25.4872 8.32806 25.499 8.53749 25.4997 8.74693V8.74986C25.4997 15.808 22.1049 20.9704 17.2409 23.5594C12.4012 26.1354 6.20776 26.111 0.681321 23.0409C0.27651 22.816 0.0787336 22.3422 0.203782 21.8963C0.328878 21.4505 0.744039 21.1484 1.20671 21.1668C3.30627 21.2503 5.38211 20.804 7.25163 19.8856C5.38025 18.7834 4.05318 17.4607 3.14714 16.0301C1.99518 14.2112 1.55915 12.2823 1.48015 10.5458C1.40141 8.81352 1.67643 7.2513 1.96648 6.12974C2.11209 5.5667 2.26341 5.10825 2.37956 4.78697C2.4377 4.62616 2.48707 4.49899 2.52312 4.41001C2.54114 4.36552 2.55639 4.33063 2.56706 4.30552C2.57239 4.293 2.57649 4.28276 2.57976 4.27525C2.58138 4.27152 2.58258 4.26795 2.58366 4.26548C2.58415 4.26438 2.58525 4.26339 2.58562 4.26255V4.26158C2.58585 4.26105 2.58623 4.26033 3.4987 4.66587L4.31804 4.09165C5.40194 5.63506 6.8512 6.88628 8.53581 7.73423C9.92953 8.43574 11.4489 8.84233 12.9997 8.93443V8.78501C12.9854 7.51417 13.3609 6.26933 14.0749 5.21763C14.7913 4.16241 15.814 3.35216 17.0055 2.89732ZM20.2526 4.61412C19.4127 4.40396 18.5283 4.45777 17.7194 4.76646C16.9105 5.07519 16.2155 5.62436 15.7292 6.34068C15.2429 7.05702 14.9881 7.90561 14.9997 8.77134V9.95201C14.9994 10.4939 14.5678 10.9369 14.026 10.951L13.611 10.9559C11.5374 10.9456 9.49201 10.4553 7.6364 9.52134C6.2254 8.81113 4.95691 7.85831 3.88249 6.71372C3.63414 7.69857 3.41296 9.01966 3.4782 10.4549C3.54515 11.9265 3.91066 13.4978 4.83659 14.9598C5.75862 16.4157 7.27482 17.8242 9.73991 18.9198C10.0714 19.0673 10.2974 19.3826 10.3298 19.744C10.3621 20.1057 10.1956 20.4571 9.89519 20.661C8.44317 21.6466 6.83429 22.3541 5.15007 22.7635C9.08206 23.9243 13.0681 23.5148 16.3014 21.7938C20.4781 19.5705 23.4988 15.1094 23.4997 8.75279C23.4988 8.48994 23.4738 8.22776 23.4245 7.96958C23.3618 7.64172 23.4671 7.30358 23.7048 7.06919C24.1062 6.67321 24.4619 6.23716 24.7692 5.77037C24.3408 5.94853 23.9042 6.10787 23.4587 6.24205L23.1696 5.28404V5.28501L23.4587 6.24205C23.1292 6.34127 22.7754 6.26358 22.5192 6.0438L22.4157 5.94126L22.194 5.70494C21.6574 5.17583 20.9874 4.79804 20.2526 4.61412Z" fill="#3B71FE"/>
</svg>
