<svg width="28" height="28" viewBox="0 0 28 28" fill="none" xmlns="http://www.w3.org/2000/svg">
<path d="M24.6663 8.1665C24.6661 5.49728 22.5026 3.3335 19.8333 3.3335H8.16632C5.4972 3.33367 3.33349 5.49739 3.33331 8.1665V19.8335C3.33331 22.5028 5.49709 24.6663 8.16632 24.6665H19.8333C22.5027 24.6665 24.6663 22.5029 24.6663 19.8335V8.1665ZM26.6663 19.8335C26.6663 23.6074 23.6073 26.6665 19.8333 26.6665H8.16632C4.39252 26.6663 1.33331 23.6073 1.33331 19.8335V8.1665C1.33349 4.39282 4.39263 1.33367 8.16632 1.3335H19.8333C23.6071 1.3335 26.6661 4.39271 26.6663 8.1665V19.8335Z" fill="#3B71FE"/>
<path d="M11.4404 8.91943C12.4984 8.3705 13.7028 8.16941 14.8818 8.34424C16.0844 8.5226 17.1979 9.08321 18.0576 9.94287C18.9172 10.8025 19.4779 11.9161 19.6562 13.1187C19.831 14.2976 19.629 15.5022 19.0801 16.5601C18.5311 17.6178 17.6621 18.4754 16.5976 19.0112C15.5331 19.5469 14.327 19.7337 13.1504 19.5444C11.9737 19.3551 10.8867 18.7993 10.0439 17.9565C9.20117 17.1138 8.64543 16.0268 8.45604 14.8501C8.26668 13.6733 8.45338 12.4665 8.98924 11.4019C9.52513 10.3373 10.3826 9.46834 11.4404 8.91943ZM14.5879 10.3228C13.8251 10.2097 13.0458 10.3397 12.3613 10.6948C11.6768 11.05 11.1221 11.6124 10.7754 12.3013C10.4287 12.99 10.3082 13.7704 10.4307 14.5317C10.5532 15.2932 10.9126 15.9971 11.458 16.5425C12.0033 17.0877 12.7065 17.4473 13.4678 17.5698C14.2292 17.6923 15.0103 17.5718 15.6992 17.2251C16.388 16.8784 16.9495 16.3227 17.3047 15.6382C17.6599 14.9536 17.7908 14.1745 17.6777 13.4116C17.5623 12.6336 17.1997 11.9131 16.6435 11.3569C16.0873 10.8007 15.3661 10.4381 14.5879 10.3228ZM20.4287 6.5835C20.9808 6.58371 21.4287 7.03134 21.4287 7.5835C21.4287 8.13565 20.9808 8.58328 20.4287 8.5835H20.417C19.8647 8.5835 19.417 8.13578 19.417 7.5835C19.417 7.03121 19.8647 6.5835 20.417 6.5835H20.4287Z" fill="#3B71FE"/>
</svg>
