<svg width="70" height="70" viewBox="0 0 70 70" fill="none" xmlns="http://www.w3.org/2000/svg">
<path d="M44.0781 22.0391H44.2969L44.1875 21.9297L51.8438 14.2735V14.1094C45.3906 8.4219 36.4766 6.45315 28.2187 8.91409C19.9609 11.375 13.6172 17.9375 11.3203 26.25C11.4297 26.1953 11.5937 26.1406 11.7578 26.1406C14.6016 24.2813 17.9922 23.1875 21.5469 23.1875C22.75 23.1875 23.8984 23.2969 25.0469 23.5156C25.1016 23.461 25.1562 23.461 25.2109 23.461C30.1328 18.0469 38.4453 17.3906 44.1328 22.0391H44.0781Z" fill="white"/>
<path d="M59.1172 26.1406C57.8594 21.4922 55.2344 17.2812 51.5703 14.0547L43.75 21.8203C47.0312 24.5 48.9453 28.5469 48.8359 32.7578V34.125C58.0781 34.125 58.0781 47.9062 48.8359 47.9062H34.9453V58.8437H34.8906L34.9453 58.9531H48.8359C56.8203 59.0078 63.875 53.8672 66.2266 46.3203C68.5781 38.7734 65.6797 30.5703 59.1172 26.1406Z" fill="white"/>
<path d="M21.3281 59.0078H35.7109V47.9609H21.3281C20.2891 47.9609 19.3047 47.7422 18.375 47.3594L10.0625 55.3437V55.4531C13.3438 57.8047 17.2812 59.0625 21.3828 59.0625L21.3281 59.0078Z" fill="white"/>
<path d="M21.9844 22.9141C13.8359 22.9688 6.61718 28 3.99218 35.3828C1.36718 42.8203 3.99218 50.9688 10.4453 55.7812L18.9766 47.6328C14.2734 45.6094 13.1797 39.7031 16.7891 36.2578C20.3984 32.7578 26.5234 33.8516 28.6562 38.3359L37.1875 30.1875C33.5781 25.6484 27.9453 22.9687 21.9844 23.0234V22.9141Z" fill="white"/>
</svg>
