<svg width="48" height="48" viewBox="0 0 48 48" fill="none" xmlns="http://www.w3.org/2000/svg">
<path d="M48 24C48 37.2548 37.2548 48 24 48C10.7452 48 0 37.2548 0 24C0 10.7452 10.7452 0 24 0C37.2548 0 48 10.7452 48 24Z" fill="white"/>
<path d="M46 24C46 11.8497 36.1503 2 24 2C11.8497 2 2 11.8497 2 24C2 36.1503 11.8497 46 24 46V48C10.7452 48 0 37.2548 0 24C0 10.7452 10.7452 0 24 0C37.2548 0 48 10.7452 48 24C48 37.2548 37.2548 48 24 48V46C36.1503 46 46 36.1503 46 24Z" fill="#3B71FE"/>
<path d="M23.6617 17.6318C24.0522 17.2412 24.6862 17.2412 25.0767 17.6318C25.4669 18.0222 25.4669 18.6554 25.0767 19.0458L20.7525 23.37H30.4L30.5025 23.3749C31.0066 23.4263 31.4 23.8524 31.4 24.37C31.3997 24.8875 31.0065 25.3129 30.5025 25.3642L30.4 25.37H20.7535L25.0767 29.6933C25.4669 30.0837 25.4669 30.7169 25.0767 31.1073C24.6862 31.4979 24.0522 31.4979 23.6617 31.1073L17.6314 25.0771L17.563 25.0009C17.5573 24.9938 17.553 24.9856 17.5474 24.9784C17.5336 24.9605 17.52 24.9426 17.5074 24.9238C17.4794 24.8819 17.4551 24.8386 17.4341 24.7939C17.414 24.7511 17.3964 24.7069 17.3824 24.6611C17.3773 24.6443 17.3739 24.6272 17.3697 24.6103C17.3506 24.5332 17.3385 24.453 17.3384 24.37C17.3384 24.2865 17.3504 24.2054 17.3697 24.1279C17.3739 24.1109 17.3773 24.0938 17.3824 24.0771C17.3964 24.0312 17.414 23.987 17.4341 23.9443C17.4551 23.8996 17.4794 23.8562 17.5074 23.8144C17.544 23.7597 17.5851 23.7083 17.6314 23.662L23.6617 17.6318Z" fill="#3B71FE"/>
</svg>
