<svg width="70" height="70" viewBox="0 0 70 70" fill="none" xmlns="http://www.w3.org/2000/svg">
<path d="M5.83325 35C5.83325 21.2507 5.83325 14.3761 10.1046 10.1047C14.376 5.83337 21.2506 5.83337 34.9999 5.83337C48.7491 5.83337 55.624 5.83337 59.8951 10.1047C64.1666 14.3761 64.1666 21.2507 64.1666 35C64.1666 48.7492 64.1666 55.6241 59.8951 59.8952C55.624 64.1667 48.7491 64.1667 34.9999 64.1667C21.2506 64.1667 14.376 64.1667 10.1046 59.8952C5.83325 55.6241 5.83325 48.7492 5.83325 35Z" stroke="white" stroke-width="3.75"/>
<path d="M49.5833 43.75H42.2917H35" stroke="white" stroke-width="3.75" stroke-linecap="round"/>
<path d="M20.4167 29.1666L21.1004 29.7363C24.8386 32.8515 26.7078 34.409 26.7078 36.4583C26.7078 38.5075 24.8386 40.065 21.1004 43.1803L20.4167 43.75" stroke="white" stroke-width="3.75" stroke-linecap="round"/>
</svg>
