<svg width="48" height="48" viewBox="0 0 48 48" fill="none" xmlns="http://www.w3.org/2000/svg">
<path d="M48 24C48 37.2548 37.2548 48 24 48C10.7452 48 0 37.2548 0 24C0 10.7452 10.7452 0 24 0C37.2548 0 48 10.7452 48 24Z" fill="white"/>
<path d="M46 24C46 11.8497 36.1503 2 24 2C11.8497 2 2 11.8497 2 24C2 36.1503 11.8497 46 24 46V48C10.7452 48 0 37.2548 0 24C0 10.7452 10.7452 0 24 0C37.2548 0 48 10.7452 48 24C48 37.2548 37.2548 48 24 48V46C36.1503 46 46 36.1503 46 24Z" fill="#3B71FE"/>
<path d="M23.6617 17.6318C24.0522 17.2412 24.6862 17.2412 25.0767 17.6318L31.107 23.662C31.1533 23.7083 31.1944 23.7597 31.231 23.8144C31.259 23.8562 31.2833 23.8996 31.3043 23.9443C31.3244 23.987 31.342 24.0312 31.356 24.0771C31.3611 24.0938 31.3645 24.1109 31.3687 24.1279C31.388 24.2054 31.4 24.2865 31.4 24.37C31.3999 24.453 31.3878 24.5332 31.3687 24.6103C31.3645 24.6272 31.3611 24.6443 31.356 24.6611C31.342 24.7069 31.3244 24.7511 31.3043 24.7939C31.2833 24.8386 31.259 24.8819 31.231 24.9238C31.1943 24.9787 31.1535 25.0306 31.107 25.0771L25.0767 31.1073C24.6862 31.4979 24.0522 31.4979 23.6617 31.1073C23.2715 30.7169 23.2715 30.0837 23.6617 29.6933L27.9849 25.37H18.3384C17.7863 25.37 17.3387 24.9221 17.3384 24.37C17.3384 23.8524 17.7318 23.4263 18.2359 23.3749L18.3384 23.37H27.9859L23.6617 19.0458C23.2715 18.6554 23.2715 18.0222 23.6617 17.6318Z" fill="#3B71FE"/>
</svg>
