<svg width="70" height="70" viewBox="0 0 70 70" fill="none" xmlns="http://www.w3.org/2000/svg">
<path d="M52.5 50.3125C52.5 50.8927 52.2695 51.4491 51.8593 51.8593C51.4491 52.2695 50.8927 52.5 50.3125 52.5C49.7323 52.5 49.1759 52.2695 48.7657 51.8593C48.3555 51.4491 48.125 50.8927 48.125 50.3125C48.125 49.7323 48.3555 49.1759 48.7657 48.7657C49.1759 48.3555 49.7323 48.125 50.3125 48.125C50.8927 48.125 51.4491 48.3555 51.8593 48.7657C52.2695 49.1759 52.5 49.7323 52.5 50.3125ZM50.3125 35C50.8927 35 51.4491 34.7695 51.8593 34.3593C52.2695 33.9491 52.5 33.3927 52.5 32.8125C52.5 32.2323 52.2695 31.6759 51.8593 31.2657C51.4491 30.8555 50.8927 30.625 50.3125 30.625C49.7323 30.625 49.1759 30.8555 48.7657 31.2657C48.3555 31.6759 48.125 32.2323 48.125 32.8125C48.125 33.3927 48.3555 33.9491 48.7657 34.3593C49.1759 34.7695 49.7323 35 50.3125 35ZM61.25 19.6875C61.2456 21.3062 60.6375 22.8681 59.5437 24.0625C60.6375 25.2569 61.2456 26.8188 61.25 28.4375V37.1875C61.2456 38.8063 60.6375 40.3681 59.5437 41.5625C60.6375 42.7569 61.2456 44.3187 61.25 45.9375V54.6875C61.25 56.428 60.5586 58.0972 59.3279 59.3279C58.0972 60.5586 56.428 61.25 54.6875 61.25H15.3125C13.572 61.25 11.9028 60.5586 10.6721 59.3279C9.4414 58.0972 8.75 56.428 8.75 54.6875V45.9375C8.75438 44.3187 9.3625 42.7569 10.4563 41.5625C9.36734 40.3645 8.75965 38.8064 8.75 37.1875V28.4375C8.75438 26.8188 9.3625 25.2569 10.4563 24.0625C9.36734 22.8645 8.75965 21.3064 8.75 19.6875V10.9375C8.75 9.19702 9.4414 7.52782 10.6721 6.29711C11.9028 5.0664 13.572 4.375 15.3125 4.375H54.6875C56.428 4.375 58.0972 5.0664 59.3279 6.29711C60.5586 7.52782 61.25 9.19702 61.25 10.9375V19.6875ZM13.125 19.6875C13.125 20.2677 13.3555 20.8241 13.7657 21.2343C14.1759 21.6445 14.7323 21.875 15.3125 21.875H54.6875C55.2677 21.875 55.8241 21.6445 56.2343 21.2343C56.6445 20.8241 56.875 20.2677 56.875 19.6875V10.9375C56.875 10.3573 56.6445 9.80094 56.2343 9.3907C55.8241 8.98047 55.2677 8.75 54.6875 8.75H15.3125C14.7323 8.75 14.1759 8.98047 13.7657 9.3907C13.3555 9.80094 13.125 10.3573 13.125 10.9375V19.6875ZM54.6875 26.25H15.3125C14.7323 26.25 14.1759 26.4805 13.7657 26.8907C13.3555 27.3009 13.125 27.8573 13.125 28.4375V37.1875C13.125 37.7677 13.3555 38.3241 13.7657 38.7343C14.1759 39.1445 14.7323 39.375 15.3125 39.375H54.6875C55.2677 39.375 55.8241 39.1445 56.2343 38.7343C56.6445 38.3241 56.875 37.7677 56.875 37.1875V28.4375C56.875 27.8573 56.6445 27.3009 56.2343 26.8907C55.8241 26.4805 55.2677 26.25 54.6875 26.25ZM56.875 45.9375C56.875 45.3573 56.6445 44.8009 56.2343 44.3907C55.8241 43.9805 55.2677 43.75 54.6875 43.75H15.3125C14.7323 43.75 14.1759 43.9805 13.7657 44.3907C13.3555 44.8009 13.125 45.3573 13.125 45.9375V54.6875C13.125 55.2677 13.3555 55.8241 13.7657 56.2343C14.1759 56.6445 14.7323 56.875 15.3125 56.875H54.6875C55.2677 56.875 55.8241 56.6445 56.2343 56.2343C56.6445 55.8241 56.875 55.2677 56.875 54.6875V45.9375ZM50.3125 17.5C50.8927 17.5 51.4491 17.2695 51.8593 16.8593C52.2695 16.4491 52.5 15.8927 52.5 15.3125C52.5 14.7323 52.2695 14.1759 51.8593 13.7657C51.4491 13.3555 50.8927 13.125 50.3125 13.125C49.7323 13.125 49.1759 13.3555 48.7657 13.7657C48.3555 14.1759 48.125 14.7323 48.125 15.3125C48.125 15.8927 48.3555 16.4491 48.7657 16.8593C49.1759 17.2695 49.7323 17.5 50.3125 17.5Z" fill="white"/>
</svg>
