<svg width="645" height="577" viewBox="0 0 645 577" fill="none" xmlns="http://www.w3.org/2000/svg">
<g filter="url(#filter0_d_117_486)">
<ellipse cx="464.077" cy="392.694" rx="62.9231" ry="66.3056" fill="white"/>
<path d="M464.077 317.389C504.237 317.389 536 351.554 536 392.695C536 433.835 504.237 468 464.077 468C423.917 468 392.154 433.835 392.154 392.695C392.154 351.554 423.917 317.389 464.077 317.389Z" stroke="#3B71FE" stroke-width="18"/>
</g>
<path d="M464.706 345.118C489.332 345.118 509.253 366.147 509.253 392.032C509.253 417.916 489.332 438.946 464.706 438.946C440.079 438.946 420.16 417.916 420.16 392.032C420.16 366.147 440.079 345.118 464.706 345.118Z" fill="white" stroke="#3B71FE"/>
<path d="M457.549 386.741L455.99 388.384H459.108L457.549 386.741Z" fill="#3B71FE"/>
<path d="M469.347 386.741L467.788 388.384H470.906L469.347 386.741Z" fill="#3B71FE"/>
<path d="M456.566 420.501H436.902V422.573H457.549C457.809 422.573 458.06 422.464 458.244 422.27C458.428 422.075 458.532 421.812 458.532 421.537V395.637H456.566V420.501Z" fill="#3B71FE"/>
<path d="M468.364 421.537C468.364 421.812 468.467 422.075 468.652 422.27C468.836 422.464 469.086 422.573 469.347 422.573H489.994V420.501H470.33V395.637H468.364V421.537Z" fill="#3B71FE"/>
<path d="M488.722 404.228C488.585 404.084 488.41 403.985 488.219 403.945C488.028 403.905 487.831 403.926 487.651 404.004C487.471 404.082 487.318 404.215 487.21 404.385C487.102 404.556 487.044 404.756 487.044 404.961V408.069H474.263V397.709H481.145C484.274 397.719 487.279 396.419 489.498 394.094C491.717 391.77 492.969 388.612 492.979 385.314C492.988 382.017 491.755 378.851 489.549 376.512C487.343 374.174 484.346 372.854 481.217 372.844C480.406 370.828 479.082 369.087 477.392 367.813C475.702 366.539 473.712 365.781 471.639 365.623C469.567 365.465 467.493 365.912 465.646 366.916C463.8 367.921 462.252 369.442 461.174 371.314C459.511 369.911 457.506 369.032 455.39 368.777C453.273 368.523 451.132 368.904 449.212 369.876C447.292 370.847 445.671 372.371 444.537 374.271C443.403 376.171 442.801 378.37 442.801 380.614V383.204H440.835C439.01 383.204 437.259 383.968 435.968 385.329C434.678 386.689 433.953 388.533 433.953 390.457C433.953 392.38 434.678 394.225 435.968 395.585C437.259 396.945 439.01 397.709 440.835 397.709H452.633V408.069H439.852V404.961C439.852 404.756 439.794 404.556 439.686 404.385C439.578 404.215 439.424 404.082 439.245 404.004C439.065 403.926 438.867 403.905 438.677 403.945C438.486 403.985 438.311 404.084 438.173 404.228L434.241 408.373C434.056 408.567 433.953 408.83 433.953 409.105C433.953 409.38 434.056 409.643 434.241 409.837L438.173 413.982C438.311 414.126 438.486 414.225 438.677 414.265C438.867 414.305 439.065 414.284 439.245 414.206C439.424 414.128 439.578 413.995 439.686 413.825C439.794 413.654 439.852 413.454 439.852 413.249V410.141H453.616C453.877 410.141 454.127 410.032 454.311 409.838C454.496 409.643 454.599 409.38 454.599 409.105V396.673C454.599 396.398 454.496 396.134 454.311 395.94C454.127 395.746 453.877 395.637 453.616 395.637H456.566V390.457H453.616C453.422 390.457 453.232 390.396 453.07 390.282C452.908 390.168 452.782 390.006 452.708 389.817C452.634 389.628 452.614 389.419 452.652 389.218C452.69 389.018 452.784 388.833 452.921 388.688L456.854 384.544C457.038 384.35 457.288 384.241 457.549 384.241C457.809 384.241 458.06 384.35 458.244 384.544L462.177 388.688C462.314 388.833 462.408 389.018 462.446 389.218C462.483 389.419 462.464 389.628 462.39 389.817C462.315 390.006 462.189 390.168 462.028 390.282C461.866 390.396 461.676 390.457 461.481 390.457H458.532V395.637H468.364V390.457H465.414C465.22 390.457 465.03 390.396 464.868 390.282C464.706 390.168 464.58 390.006 464.506 389.817C464.432 389.628 464.412 389.419 464.45 389.218C464.488 389.018 464.582 388.833 464.719 388.688L468.652 384.544C468.836 384.35 469.086 384.241 469.347 384.241C469.608 384.241 469.858 384.35 470.042 384.544L473.975 388.688C474.112 388.833 474.206 389.018 474.244 389.218C474.282 389.419 474.262 389.628 474.188 389.817C474.113 390.006 473.987 390.168 473.826 390.282C473.664 390.396 473.474 390.457 473.28 390.457H470.33V395.637H473.28C473.019 395.637 472.769 395.746 472.584 395.94C472.4 396.134 472.296 396.398 472.296 396.673V409.105C472.296 409.38 472.4 409.643 472.584 409.838C472.769 410.032 473.019 410.141 473.28 410.141H487.044V413.249C487.044 413.454 487.102 413.654 487.21 413.825C487.318 413.995 487.471 414.128 487.651 414.206C487.831 414.284 488.028 414.305 488.219 414.265C488.41 414.225 488.585 414.126 488.722 413.982L492.655 409.837C492.839 409.643 492.943 409.38 492.943 409.105C492.943 408.83 492.839 408.567 492.655 408.373L488.722 404.228ZM487.044 388.385H485.078V386.312H487.044V388.385ZM481.145 378.024C482.709 378.026 484.209 378.681 485.314 379.847C486.42 381.012 487.042 382.592 487.044 384.24H485.078C485.078 383.141 484.663 382.087 483.926 381.31C483.188 380.533 482.188 380.096 481.145 380.096V378.024ZM437.885 410.748L436.326 409.105L437.885 407.462V410.748ZM489.01 410.748V407.462L490.57 409.105L489.01 410.748Z" fill="#3B71FE"/>
<g filter="url(#filter1_d_117_486)">
<ellipse cx="324.065" cy="184.306" rx="63.1396" ry="66.3056" fill="white"/>
<path d="M324.065 109C364.316 109 396.205 143.136 396.205 184.306C396.205 225.476 364.316 259.611 324.065 259.611C283.814 259.611 251.925 225.476 251.925 184.306C251.925 143.136 283.813 109 324.065 109Z" stroke="#3B71FE" stroke-width="18"/>
</g>
<path d="M324.696 136.729C349.404 136.729 369.394 157.756 369.394 183.643C369.394 209.529 349.404 230.557 324.696 230.557C299.987 230.556 279.999 209.529 279.999 183.643C279.999 157.756 299.987 136.729 324.696 136.729Z" fill="white" stroke="#3B71FE"/>
<g clip-path="url(#clip0_117_486)">
<path d="M345.491 168.195V163.123H339.454V155.131H335.336V163.123H330.146V155.131H326.028V163.123H320.839V155.131H316.721V163.123H311.531V155.131H307.414V163.123H301.376V168.195H291.864V171.654H301.376V176.014H291.864V179.473H301.376V183.833H291.864V187.293H301.376V191.653H291.864V195.112H301.376V200.184H307.413V208.176H311.531V200.184H316.721V208.176H320.839V200.184H326.028V208.176H330.146V200.184H335.336V208.176H339.453V200.184H345.491V195.112H355.003V191.653H345.491V187.293H355.003V183.833H345.491V179.473H355.003V176.014H345.491V171.654H355.003V168.195H345.491V168.195ZM338.204 184.396C338.204 186.791 336.446 188.848 333.958 189.706C333.788 192.495 331.033 194.721 327.671 194.721C326.04 194.721 324.553 194.198 323.433 193.341C322.314 194.198 320.827 194.721 319.196 194.721C315.834 194.721 313.079 192.495 312.909 189.706C310.42 188.848 308.663 186.791 308.663 184.396C308.663 183.425 308.953 182.486 309.494 181.652C308.965 180.837 308.663 179.903 308.663 178.911C308.663 176.537 310.413 174.466 312.908 173.603C313.078 170.812 315.833 168.586 319.196 168.586C320.826 168.586 322.314 169.109 323.433 169.966C324.553 169.109 326.04 168.586 327.671 168.586C331.033 168.586 333.789 170.812 333.958 173.603C336.454 174.466 338.204 176.537 338.204 178.911C338.204 179.903 337.902 180.837 337.372 181.652C337.914 182.486 338.204 183.425 338.204 184.396Z" fill="#3B71FE"/>
<path d="M319.196 172.045C317.995 172.045 317.018 172.866 317.018 173.875C317.018 174.634 317.586 175.323 318.431 175.59L316.985 178.829C315.8 178.455 314.804 177.794 314.092 176.962C313.305 177.363 312.781 178.092 312.781 178.911C312.781 180.167 313.997 181.19 315.493 181.19V184.649C314.534 184.649 313.621 184.481 312.793 184.181C312.785 184.252 312.781 184.323 312.781 184.396C312.781 185.652 313.997 186.674 315.493 186.674C316.268 186.674 316.982 186.408 317.504 185.924L320.556 188.247C319.633 189.103 318.427 189.696 317.113 189.967C317.386 190.716 318.217 191.262 319.196 191.262C320.397 191.262 321.374 190.441 321.374 189.432V173.875C321.375 172.866 320.397 172.045 319.196 172.045Z" fill="#3B71FE"/>
<path d="M331.374 184.649V181.19C332.87 181.19 334.086 180.167 334.086 178.911C334.086 178.092 333.562 177.363 332.775 176.962C332.063 177.794 331.067 178.455 329.882 178.829L328.436 175.59C329.281 175.323 329.849 174.634 329.849 173.875C329.849 172.866 328.872 172.045 327.671 172.045C326.47 172.045 325.492 172.866 325.492 173.875V189.432C325.492 190.441 326.47 191.262 327.671 191.262C328.65 191.262 329.48 190.716 329.753 189.967C328.439 189.696 327.234 189.103 326.311 188.247L329.363 185.924C329.884 186.408 330.599 186.674 331.374 186.674C332.87 186.674 334.086 185.652 334.086 184.396C334.086 184.323 334.082 184.252 334.074 184.181C333.245 184.481 332.333 184.649 331.374 184.649Z" fill="#3B71FE"/>
</g>
<g filter="url(#filter2_d_117_486)">
<ellipse cx="180.923" cy="392.694" rx="62.9231" ry="66.3056" fill="white"/>
<path d="M180.923 317.389C221.083 317.389 252.846 351.554 252.846 392.695C252.846 433.835 221.083 468 180.923 468C140.763 468 109 433.835 109 392.695C109 351.554 140.763 317.389 180.923 317.389Z" stroke="#3B71FE" stroke-width="18"/>
</g>
<path d="M181.552 345.118C206.179 345.118 226.099 366.147 226.099 392.032C226.099 417.916 206.178 438.946 181.552 438.946C156.926 438.946 137.006 417.916 137.006 392.032C137.006 366.147 156.926 345.118 181.552 345.118Z" fill="white" stroke="#3B71FE"/>
<rect width="64.8108" height="53.7075" transform="translate(148.832 363.52)" fill="white"/>
<path d="M193.957 400.914L206.649 390.374L193.957 379.834L190.122 383.011L199.034 390.374L190.122 397.736L193.957 400.914ZM172.353 397.736L163.442 390.374L172.353 383.011L168.519 379.834L155.826 390.374L168.519 400.914L172.353 397.736ZM186.639 370.233L183.992 369.741L178.591 389.881L173.19 410.022L175.837 410.514L178.483 411.006L183.884 390.866L189.285 370.726L186.639 370.233Z" fill="#3B71FE"/>
<line y1="-0.5" x2="141.701" y2="-0.5" transform="matrix(-0.494804 0.869005 -0.845231 -0.5344 274.409 208.933)" stroke="#3B71FE"/>
<line y1="-0.5" x2="123.013" y2="-0.5" transform="matrix(0.479149 0.877733 -0.85516 0.518365 373.032 227.878)" stroke="#3B71FE"/>
<line y1="-0.5" x2="207.806" y2="-0.5" transform="matrix(0.999942 0.0108002 -0.0097265 0.999953 213.283 436.267)" stroke="#3B71FE"/>
<line y1="-0.5" x2="157.83" y2="-0.5" transform="matrix(-0.403476 0.91499 -0.898116 -0.439759 307.527 247.334)" stroke="#3B71FE"/>
<line y1="-1" x2="153.779" y2="-1" transform="matrix(0.461789 0.88699 -0.865743 0.500488 330.141 250.611)" stroke="#3B71FE" stroke-width="2"/>
<line y1="-1" x2="157.333" y2="-1" transform="matrix(0.999837 0.0180614 -0.0162662 0.999868 243.846 393.642)" stroke="#3B71FE" stroke-width="2"/>
<defs>
<filter id="filter0_d_117_486" x="283.154" y="208.389" width="361.846" height="368.611" filterUnits="userSpaceOnUse" color-interpolation-filters="sRGB">
<feFlood flood-opacity="0" result="BackgroundImageFix"/>
<feColorMatrix in="SourceAlpha" type="matrix" values="0 0 0 0 0 0 0 0 0 0 0 0 0 0 0 0 0 0 127 0" result="hardAlpha"/>
<feOffset/>
<feGaussianBlur stdDeviation="50"/>
<feComposite in2="hardAlpha" operator="out"/>
<feColorMatrix type="matrix" values="0 0 0 0 0.231373 0 0 0 0 0.443137 0 0 0 0 0.996078 0 0 0 1 0"/>
<feBlend mode="normal" in2="BackgroundImageFix" result="effect1_dropShadow_117_486"/>
<feBlend mode="normal" in="SourceGraphic" in2="effect1_dropShadow_117_486" result="shape"/>
</filter>
<filter id="filter1_d_117_486" x="142.925" y="0" width="362.279" height="368.611" filterUnits="userSpaceOnUse" color-interpolation-filters="sRGB">
<feFlood flood-opacity="0" result="BackgroundImageFix"/>
<feColorMatrix in="SourceAlpha" type="matrix" values="0 0 0 0 0 0 0 0 0 0 0 0 0 0 0 0 0 0 127 0" result="hardAlpha"/>
<feOffset/>
<feGaussianBlur stdDeviation="50"/>
<feComposite in2="hardAlpha" operator="out"/>
<feColorMatrix type="matrix" values="0 0 0 0 0.231373 0 0 0 0 0.443137 0 0 0 0 0.996078 0 0 0 1 0"/>
<feBlend mode="normal" in2="BackgroundImageFix" result="effect1_dropShadow_117_486"/>
<feBlend mode="normal" in="SourceGraphic" in2="effect1_dropShadow_117_486" result="shape"/>
</filter>
<filter id="filter2_d_117_486" x="0" y="208.389" width="361.846" height="368.611" filterUnits="userSpaceOnUse" color-interpolation-filters="sRGB">
<feFlood flood-opacity="0" result="BackgroundImageFix"/>
<feColorMatrix in="SourceAlpha" type="matrix" values="0 0 0 0 0 0 0 0 0 0 0 0 0 0 0 0 0 0 127 0" result="hardAlpha"/>
<feOffset/>
<feGaussianBlur stdDeviation="50"/>
<feComposite in2="hardAlpha" operator="out"/>
<feColorMatrix type="matrix" values="0 0 0 0 0.231373 0 0 0 0 0.443137 0 0 0 0 0.996078 0 0 0 1 0"/>
<feBlend mode="normal" in2="BackgroundImageFix" result="effect1_dropShadow_117_486"/>
<feBlend mode="normal" in="SourceGraphic" in2="effect1_dropShadow_117_486" result="shape"/>
</filter>
<clipPath id="clip0_117_486">
<rect width="63.1396" height="53.0444" fill="white" transform="translate(291.864 155.131)"/>
</clipPath>
</defs>
</svg>
