<svg width="284" height="110" viewBox="0 0 284 110" fill="none" xmlns="http://www.w3.org/2000/svg">
<path d="M2.63861 108.627C2.79791 109.155 3.35571 109.455 3.88452 109.296L12.5021 106.7C13.0309 106.541 13.3305 105.983 13.1712 105.454C13.0119 104.925 12.4541 104.626 11.9253 104.785L4.26522 107.092L1.95797 99.4322C1.7987 98.9033 1.24087 98.6038 0.71206 98.7631C0.183252 98.9223 -0.116309 99.4801 0.0429624 100.009L2.63861 108.627ZM282.596 108.338L283.449 107.817C283.108 107.257 282.762 106.697 282.414 106.135L281.564 106.662L280.714 107.189C281.061 107.747 281.404 108.304 281.743 108.86L282.596 108.338ZM279.436 103.284L280.278 102.746C279.558 101.62 278.824 100.49 278.077 99.3562L277.242 99.9064L276.407 100.457C277.149 101.583 277.878 102.706 278.593 103.823L279.436 103.284ZM275.033 96.6007L275.861 96.0396C275.109 94.931 274.345 93.8196 273.569 92.7061L272.749 93.278L271.928 93.8498C272.7 94.9562 273.459 96.0604 274.205 97.1618L275.033 96.6007ZM270.452 90.029L271.265 89.4466C270.489 88.3629 269.701 87.278 268.902 86.1925L268.097 86.7853L267.292 87.3781C268.085 88.4566 268.868 89.5346 269.64 90.6114L270.452 90.029ZM265.701 83.573L266.498 82.9699C265.697 81.9099 264.885 80.8502 264.063 79.7914L263.273 80.4047L262.483 81.018C263.3 82.07 264.107 83.1229 264.903 84.1761L265.701 83.573ZM260.784 77.2417L261.566 76.6182C260.738 75.5804 259.901 74.5441 259.054 73.51L258.28 74.1436L257.507 74.7772C258.348 75.8046 259.18 76.8342 260.002 77.8653L260.784 77.2417ZM255.721 71.0608L256.487 70.4171C255.626 69.3945 254.757 68.3747 253.878 67.3583L253.122 68.0122L252.365 68.6662C253.238 69.6758 254.102 70.6888 254.956 71.7046L255.721 71.0608ZM250.489 65.0075L251.236 64.3433C250.347 63.342 249.448 62.3447 248.541 61.3519L247.803 62.0264L247.065 62.7008C247.965 63.6867 248.858 64.6772 249.741 65.6716L250.489 65.0075ZM245.088 59.0951L245.816 58.4103C244.901 57.4359 243.977 56.4666 243.045 55.5029L242.326 56.1981L241.607 56.8933C242.533 57.85 243.45 58.8124 244.359 59.7798L245.088 59.0951ZM239.52 53.3387L240.229 52.633C239.285 51.6858 238.334 50.7447 237.374 49.8104L236.677 50.5267L235.979 51.243C236.931 52.1702 237.875 53.1042 238.811 54.0444L239.52 53.3387ZM233.788 47.7555L234.474 47.0284C233.5 46.1089 232.519 45.1967 231.53 44.2924L230.855 45.0303L230.18 45.7683C231.161 46.6652 232.135 47.5702 233.101 48.4825L233.788 47.7555ZM227.88 42.3539L228.543 41.6049C227.54 40.7173 226.53 39.8382 225.512 38.9683L224.862 39.7283L224.212 40.4883C225.221 41.3509 226.223 42.2225 227.218 43.1028L227.88 42.3539ZM221.795 37.1518L222.432 36.3805C221.398 35.5274 220.357 34.6841 219.31 33.8511L218.687 34.6338L218.065 35.4165C219.103 36.2419 220.134 37.0776 221.159 37.9231L221.795 37.1518ZM215.532 32.1721L216.139 31.3779C215.072 30.5619 213.999 29.757 212.919 28.9637L212.327 29.7696L211.735 30.5755C212.804 31.361 213.867 32.1581 214.924 32.9664L215.532 32.1721ZM209.085 27.4371L209.66 26.6194C208.56 25.8448 207.454 25.0827 206.341 24.3336L205.782 25.1631L205.224 25.9927C206.325 26.7339 207.42 27.4881 208.509 28.2547L209.085 27.4371ZM202.44 22.9653L202.98 22.1238C201.85 21.3986 200.714 20.6872 199.573 19.9901L199.052 20.8437L198.531 21.6972C199.659 22.3862 200.782 23.0897 201.9 23.8069L202.44 22.9653ZM195.606 18.7952L196.106 17.9296C194.945 17.2577 193.778 16.6011 192.605 15.9604L192.125 16.838L191.646 17.7156C192.804 18.3484 193.957 18.997 195.105 19.6608L195.606 18.7952ZM188.583 14.9614L189.04 14.0718C187.843 13.4573 186.641 12.8596 185.433 12.2795L185 13.1809L184.567 14.0824C185.759 14.6547 186.945 15.2444 188.127 15.8509L188.583 14.9614ZM181.375 11.5013L181.783 10.5882C180.552 10.0382 179.315 9.50678 178.072 8.99462L177.691 9.91913L177.31 10.8436C178.534 11.3483 179.753 11.8721 180.968 12.4143L181.375 11.5013ZM173.977 8.45209L174.33 7.51657C173.069 7.04034 171.803 6.58433 170.532 6.14923L170.208 7.09535L169.884 8.04147C171.135 8.46969 172.382 8.91863 173.624 9.38762L173.977 8.45209ZM166.402 5.86095L166.695 4.90482C165.409 4.51078 164.118 4.13854 162.822 3.78881L162.562 4.75425L162.301 5.71969C163.575 6.06348 164.844 6.4295 166.109 6.81708L166.402 5.86095ZM158.678 3.77772L158.905 2.80378C157.594 2.49864 156.279 2.21694 154.96 1.95942L154.769 2.94089L154.577 3.92235C155.872 4.17521 157.164 4.45188 158.451 4.75167L158.678 3.77772ZM150.829 2.24691L150.984 1.25901C149.654 1.05021 148.32 0.866407 146.982 0.708333L146.865 1.70143L146.748 2.69452C148.06 2.84957 149.369 3.0299 150.674 3.23481L150.829 2.24691ZM142.885 1.30944L142.964 0.312528C141.624 0.206975 140.281 0.127675 138.934 0.075345L138.895 1.07459L138.856 2.07383C140.176 2.12513 141.493 2.20286 142.807 2.30635L142.885 1.30944ZM134.885 0.999967L134.884 -3.34592e-05C133.545 0.00226299 132.203 0.0316514 130.858 0.0888337L130.901 1.08793L130.943 2.08703C132.261 2.03101 133.575 2.00221 134.887 1.99997L134.885 0.999967ZM126.903 1.34066L126.819 0.344167C125.482 0.456456 124.143 0.596669 122.801 0.765462L122.926 1.75764L123.051 2.74982C124.365 2.58449 125.677 2.44715 126.986 2.33715L126.903 1.34066ZM118.979 2.33693L118.814 1.35073C117.482 1.57419 116.149 1.82624 114.814 2.10751L115.02 3.08603L115.226 4.06456C116.535 3.78897 117.841 3.54204 119.145 3.32313L118.979 2.33693ZM111.156 3.98174L110.911 3.0123C109.612 3.34113 108.311 3.69806 107.009 4.08367L107.293 5.04251L107.577 6.00136C108.853 5.6233 110.128 5.27344 111.402 4.95118L111.156 3.98174ZM103.466 6.25848L103.144 5.31154C101.89 5.73732 100.635 6.19012 99.3782 6.67045L99.7353 7.60451L100.092 8.53856C101.325 8.06722 102.557 7.62302 103.787 7.20541L103.466 6.25848ZM95.9987 9.11455L95.6068 8.19455C94.3837 8.71559 93.16 9.26312 91.9357 9.83762L92.3605 10.7429L92.7853 11.6482C93.988 11.0838 95.1899 10.5461 96.3906 10.0345L95.9987 9.11455ZM88.7912 12.4946L88.3352 11.6046C87.1346 12.2197 85.9336 12.8612 84.7324 13.5294L85.2185 14.4033L85.7046 15.2772C86.8861 14.6199 88.067 13.9892 89.2472 13.3845L88.7912 12.4946ZM81.7874 16.3853L81.2734 15.5275C80.1377 16.208 79.0019 16.9127 77.8661 17.6421L78.4065 18.4835L78.9468 19.325C80.0654 18.6067 81.1836 17.9129 82.3014 17.2431L81.7874 16.3853ZM75.0245 20.7291L74.4589 19.9044C73.373 20.6492 72.2872 21.4169 71.2017 22.2077L71.7905 23.016L72.3793 23.8242C73.4497 23.0444 74.5201 22.2877 75.5901 21.5537L75.0245 20.7291ZM68.6148 25.3968L68.0042 24.6048C66.9386 25.4264 65.8733 26.2707 64.8083 27.1378L65.4397 27.9133L66.0712 28.6887C67.1226 27.8326 68.174 26.9994 69.2254 26.1887L68.6148 25.3968ZM62.3714 30.4769L61.7208 29.7175C60.7266 30.5694 59.7328 31.4415 58.7395 32.3342L59.4079 33.0779L60.0764 33.8217C61.0581 32.9395 62.04 32.0777 63.0221 31.2362L62.3714 30.4769ZM56.4464 35.8022L55.7611 35.074C54.7733 36.0037 53.786 36.954 52.7993 37.9251L53.5008 38.6378L54.2022 39.3505C55.1784 38.3897 56.155 37.4497 57.1318 36.5303L56.4464 35.8022ZM50.7487 41.4027L50.0328 40.7045C49.1112 41.6493 48.1902 42.6125 47.2698 43.5944L47.9993 44.2783L48.7289 44.9622C49.6404 43.9899 50.5523 43.0362 51.4645 42.101L50.7487 41.4027ZM45.2532 47.2657L44.5105 46.596C43.6157 47.5884 42.7216 48.5986 41.8281 49.6269L42.583 50.2828L43.3378 50.9387C44.2233 49.9195 45.1094 48.9185 45.9959 47.9353L45.2532 47.2657ZM40.0389 53.2621L39.273 52.6192C38.4219 53.6331 37.5716 54.6636 36.7219 55.7109L37.4985 56.3409L38.275 56.971C39.1178 55.9322 39.9611 54.9103 40.8049 53.905L40.0389 53.2621ZM34.9619 59.5204L34.1752 58.9031C33.3511 59.9533 32.5278 61.0194 31.7052 62.1016L32.5014 62.7067L33.2975 63.3119C34.1139 62.2377 34.931 61.1797 35.7486 60.1377L34.9619 59.5204ZM30.1558 65.8396L29.351 65.246C28.567 66.3089 27.7837 67.3867 27.0012 68.4793L27.8142 69.0616L28.6272 69.6438C29.4044 68.5587 30.1821 67.4885 30.9605 66.4332L30.1558 65.8396ZM25.4769 72.3733L24.656 71.8023C23.881 72.9164 23.1068 74.0453 22.3335 75.1892L23.1619 75.7493L23.9904 76.3094C24.7588 75.1727 25.528 74.0511 26.2978 72.9444L25.4769 72.3733ZM21.0024 78.986L20.1672 78.436C19.4459 79.5314 18.7253 80.64 18.0055 81.7618L18.8472 82.3019L19.6888 82.8419C20.4044 81.7266 21.1207 80.6246 21.8376 79.5359L21.0024 78.986ZM16.6963 85.6977L15.8484 85.1675C15.1302 86.316 14.4128 87.478 13.6962 88.6534L14.55 89.174L15.4039 89.6945C16.1165 88.5254 16.83 87.3699 17.5442 86.2279L16.6963 85.6977ZM12.483 92.6062L11.6236 92.0948C10.9602 93.2098 10.2976 94.3364 9.63571 95.4748L10.5002 95.9774L11.3647 96.48C12.0233 95.3474 12.6825 94.2266 13.3424 93.1175L12.483 92.6062ZM8.52185 99.4195L7.6524 98.9255C6.99209 100.088 6.33255 101.262 5.67382 102.447L6.548 102.933L7.42221 103.419C8.07782 102.238 8.73419 101.07 9.39129 99.9136L8.52185 99.4195ZM4.57885 106.518L3.70007 106.041C3.37155 106.646 3.04324 107.254 2.71514 107.865L3.59612 108.338L4.47711 108.811C4.80377 108.203 5.13058 107.598 5.45761 106.996L4.57885 106.518Z" fill="#3B71FE"/>
</svg>
