<svg width="284" height="110" viewBox="0 0 284 110" fill="none" xmlns="http://www.w3.org/2000/svg">
<path d="M280.811 0.711838C280.652 0.183021 280.094 -0.116546 279.565 0.0427359L270.948 2.63839C270.419 2.79767 270.119 3.35549 270.278 3.8843C270.438 4.41312 270.996 4.71269 271.524 4.55341L279.184 2.24616L281.492 9.90622C281.651 10.435 282.209 10.7346 282.738 10.5753C283.266 10.416 283.566 9.85823 283.407 9.32941L280.811 0.711838ZM0.853516 1.00024L0.000233769 1.52169C0.341976 2.08091 0.6873 2.64165 1.03618 3.2038L1.88585 2.67649L2.73552 2.14918C2.38906 1.59092 2.04614 1.03408 1.7068 0.478794L0.853516 1.00024ZM4.01417 6.05393L3.17178 6.59281C3.8917 7.71819 4.62535 8.84827 5.37249 9.9822L6.20752 9.432L7.04256 8.8818C6.30036 7.75538 5.57161 6.63284 4.85655 5.51504L4.01417 6.05393ZM8.41683 12.7376L7.58907 13.2987C8.34053 14.4073 9.10451 15.5188 9.88078 16.6323L10.7011 16.0604L11.5214 15.4885C10.7502 14.3822 9.99115 13.278 9.24459 12.1766L8.41683 12.7376ZM12.9972 19.3094L12.1843 19.8917C12.9607 20.9755 13.7484 22.0604 14.5473 23.1458L15.3527 22.553L16.1581 21.9603C15.3643 20.8818 14.5815 19.8038 13.8102 18.727L12.9972 19.3094ZM17.7491 25.7654L16.9515 26.3685C17.7528 27.4284 18.5647 28.4882 19.3868 29.547L20.1767 28.9337L20.9665 28.3204C20.1497 27.2684 19.3431 26.2155 18.5468 25.1623L17.7491 25.7654ZM22.6656 32.0966L21.8838 32.7201C22.7115 33.7579 23.5489 34.7942 24.3958 35.8284L25.1695 35.1948L25.9431 34.5611C25.1017 33.5338 24.2697 32.5042 23.4474 31.4731L22.6656 32.0966ZM27.7284 38.2775L26.9632 38.9213C27.8234 39.9439 28.693 40.9637 29.5716 41.9801L30.3281 41.3261L31.0846 40.6722C30.2119 39.6626 29.3482 38.6496 28.4936 37.6338L27.7284 38.2775ZM32.9612 44.3309L32.2136 44.9951C33.1031 45.9963 34.0013 46.9937 34.9082 47.9864L35.6465 47.312L36.3849 46.6376C35.4843 45.6517 34.5922 44.6612 33.7088 43.6668L32.9612 44.3309ZM38.3621 50.2433L37.6333 50.928C38.5489 51.9024 39.4727 52.8718 40.4047 53.8355L41.1235 53.1403L41.8424 52.4451C40.9171 51.4884 39.9999 50.526 39.0909 49.5585L38.3621 50.2433ZM43.9297 55.9996L43.2212 56.7053C44.1647 57.6526 45.1161 58.5937 46.0752 59.528L46.773 58.8117L47.4708 58.0953C46.519 57.1682 45.5747 56.2342 44.6382 55.2939L43.9297 55.9996ZM49.6622 61.5829L48.9756 62.3099C49.9494 63.2295 50.9307 64.1417 51.9194 65.046L52.5943 64.308L53.2692 63.5701C52.2884 62.6731 51.3149 61.7682 50.3488 60.8558L49.6622 61.5829ZM55.5693 66.9845L54.9066 67.7334C55.9098 68.621 56.9201 69.5001 57.9376 70.3701L58.5875 69.6101L59.2373 68.85C58.2286 67.9875 57.2268 67.1158 56.232 66.2356L55.5693 66.9845ZM61.6545 72.1866L61.018 72.9579C62.0518 73.811 63.0925 74.6543 64.1401 75.4872L64.7625 74.7045L65.3848 73.9218C64.3469 73.0965 63.3156 72.2608 62.2909 71.4153L61.6545 72.1866ZM67.9182 77.1662L67.3106 77.9605C68.3772 78.7765 69.4506 79.5814 70.5304 80.3747L71.1225 79.5688L71.7145 78.7629C70.6453 77.9774 69.5823 77.1802 68.5258 76.372L67.9182 77.1662ZM74.3651 81.9013L73.7894 82.719C74.8895 83.4935 75.9961 84.2557 77.109 85.0048L77.6674 84.1752L78.2258 83.3457C77.1247 82.6045 76.0297 81.8503 74.9408 81.0836L74.3651 81.9013ZM81.0099 86.373L80.4697 87.2145C81.5994 87.9397 82.7352 88.6512 83.8771 89.3482L84.3981 88.4947L84.9192 87.6412C83.7904 86.9521 82.6673 86.2487 81.5501 85.5315L81.0099 86.373ZM87.8441 90.5432L87.3433 91.4088C88.5047 92.0806 89.672 92.7372 90.845 93.378L91.3244 92.5004L91.8038 91.6228C90.6454 90.99 89.4923 90.3414 88.3448 89.6776L87.8441 90.5432ZM94.8663 94.377L94.4095 95.2666C95.6063 95.8811 96.8088 96.4787 98.0168 97.0589L98.4497 96.1574L98.8826 95.256C97.6909 94.6837 96.5043 94.0939 95.323 93.4874L94.8663 94.377ZM102.074 97.8371L101.667 98.7502C102.898 99.3002 104.135 99.8316 105.377 100.344L105.758 99.4192L106.14 98.4947C104.916 97.9901 103.696 97.4663 102.482 96.924L102.074 97.8371ZM109.473 100.886L109.119 101.822C110.381 102.298 111.647 102.754 112.918 103.189L113.242 102.243L113.566 101.297C112.315 100.869 111.068 100.42 109.826 99.9507L109.473 100.886ZM117.048 103.477L116.755 104.434C118.041 104.828 119.332 105.2 120.627 105.55L120.888 104.584L121.149 103.619C119.875 103.275 118.606 102.909 117.341 102.521L117.048 103.477ZM124.772 105.561L124.545 106.535C125.855 106.84 127.17 107.121 128.489 107.379L128.681 106.397L128.872 105.416C127.577 105.163 126.286 104.886 124.999 104.587L124.772 105.561ZM132.621 107.091L132.466 108.079C133.796 108.288 135.13 108.472 136.467 108.63L136.585 107.637L136.702 106.644C135.39 106.489 134.081 106.308 132.776 106.104L132.621 107.091ZM140.564 108.029L140.486 109.026C141.826 109.131 143.169 109.211 144.516 109.263L144.555 108.264L144.594 107.265C143.274 107.213 141.957 107.135 140.643 107.032L140.564 108.029ZM148.564 108.338L148.566 109.338C149.905 109.336 151.247 109.307 152.591 109.25L152.549 108.25L152.506 107.251C151.189 107.307 149.874 107.336 148.563 107.338L148.564 108.338ZM156.547 107.998L156.631 108.994C157.968 108.882 159.307 108.742 160.649 108.573L160.524 107.581L160.399 106.589C159.085 106.754 157.773 106.891 156.463 107.001L156.547 107.998ZM164.47 107.001L164.636 107.988C165.967 107.764 167.3 107.512 168.636 107.231L168.429 106.252L168.223 105.274C166.915 105.549 165.609 105.796 164.305 106.015L164.47 107.001ZM172.293 105.357L172.539 106.326C173.838 105.997 175.139 105.64 176.441 105.255L176.157 104.296L175.873 103.337C174.596 103.715 173.321 104.065 172.048 104.387L172.293 105.357ZM179.984 103.08L180.305 104.027C181.56 103.601 182.815 103.148 184.071 102.668L183.714 101.734L183.357 100.8C182.124 101.271 180.893 101.715 179.663 102.133L179.984 103.08ZM187.451 100.224L187.843 101.144C189.066 100.623 190.29 100.075 191.514 99.5007L191.089 98.5955L190.664 97.6902C189.462 98.2545 188.26 98.7923 187.059 99.3038L187.451 100.224ZM194.658 96.8438L195.114 97.7338C196.315 97.1186 197.516 96.4771 198.717 95.8089L198.231 94.935L197.745 94.0611C196.564 94.7184 195.383 95.3491 194.202 95.9538L194.658 96.8438ZM201.662 92.953L202.176 93.8108C203.312 93.1304 204.448 92.4256 205.584 91.6963L205.043 90.8548L204.503 90.0134C203.384 90.7317 202.266 91.4255 201.148 92.0952L201.662 92.953ZM208.425 88.6093L208.991 89.4339C210.077 88.6891 211.162 87.9215 212.248 87.1307L211.659 86.3224L211.07 85.5141C210 86.2939 208.93 87.0507 207.86 87.7846L208.425 88.6093ZM214.835 83.9416L215.445 84.7335C216.511 83.9119 217.576 83.0677 218.641 82.2005L218.01 81.4251L217.378 80.6496C216.327 81.5058 215.276 82.339 214.224 83.1496L214.835 83.9416ZM221.078 78.8615L221.729 79.6208C222.723 78.769 223.717 77.8969 224.71 77.0042L224.042 76.2604L223.373 75.5166C222.392 76.3989 221.41 77.2606 220.428 78.1021L221.078 78.8615ZM227.003 73.5362L227.689 74.2644C228.676 73.3347 229.664 72.3844 230.65 71.4132L229.949 70.7005L229.247 69.9878C228.271 70.9487 227.295 71.8886 226.318 72.808L227.003 73.5362ZM232.701 67.9356L233.417 68.6339C234.338 67.6891 235.259 66.7258 236.18 65.744L235.45 65.0601L234.721 64.3762C233.809 65.3485 232.897 66.3021 231.985 67.2374L232.701 67.9356ZM238.196 62.0727L238.939 62.7423C239.834 61.75 240.728 60.7397 241.622 59.7115L240.867 59.0556L240.112 58.3997C239.226 59.4188 238.34 60.4199 237.454 61.403L238.196 62.0727ZM243.411 56.0763L244.177 56.7192C245.028 55.7052 245.878 54.6747 246.728 53.6274L245.951 52.9974L245.175 52.3674C244.332 53.4061 243.489 54.4281 242.645 55.4334L243.411 56.0763ZM248.488 49.818L249.274 50.4353C250.099 49.3851 250.922 48.319 251.744 47.2367L250.948 46.6316L250.152 46.0265C249.336 47.1007 248.519 48.1587 247.701 49.2007L248.488 49.818ZM253.294 43.4987L254.099 44.0923C254.883 43.0294 255.666 41.9517 256.448 40.859L255.635 40.2768L254.822 39.6946C254.045 40.7797 253.268 41.8498 252.489 42.9051L253.294 43.4987ZM257.973 36.965L258.794 37.5361C259.569 36.422 260.343 35.2931 261.116 34.1492L260.288 33.5891L259.459 33.029C258.691 34.1656 257.922 35.2873 257.152 36.394L257.973 36.965ZM262.447 30.3524L263.282 30.9024C264.004 29.807 264.724 28.6984 265.444 27.5765L264.602 27.0365L263.761 26.4965C263.045 27.6118 262.329 28.7137 261.612 29.8024L262.447 30.3524ZM266.753 23.6407L267.601 24.1709C268.319 23.0224 269.037 21.8604 269.753 20.6849L268.9 20.1644L268.046 19.6439C267.333 20.8129 266.62 21.9684 265.905 23.1105L266.753 23.6407ZM270.967 16.7322L271.826 17.2435C272.489 16.1286 273.152 15.002 273.814 13.8636L272.949 13.361L272.085 12.8583C271.426 13.991 270.767 15.1118 270.107 16.2209L270.967 16.7322ZM274.928 9.91885L275.797 10.4129C276.458 9.2508 277.117 8.07684 277.776 6.89092L276.902 6.40534L276.027 5.91976C275.372 7.10009 274.715 8.26841 274.058 9.42481L274.928 9.91885ZM278.871 2.81994L279.75 3.29718C280.078 2.69226 280.406 2.08433 280.734 1.47337L279.854 1.00024L278.973 0.527117C278.646 1.13534 278.319 1.74053 277.992 2.34269L278.871 2.81994Z" fill="#3B71FE"/>
</svg>
