<svg width="283" height="110" viewBox="0 0 283 110" fill="none" xmlns="http://www.w3.org/2000/svg">
<path d="M3.34646 0.0281619C2.80959 -0.101426 2.26932 0.228737 2.13973 0.765604L0.0279694 9.51434C-0.101619 10.0512 0.228545 10.5915 0.765411 10.7211C1.30228 10.8507 1.84255 10.5205 1.97213 9.98362L3.84926 2.20697L11.6259 4.08409C12.1628 4.21368 12.703 3.88352 12.8326 3.34665C12.9622 2.80978 12.6321 2.26952 12.0952 2.13993L3.34646 0.0281619ZM3.11182 1.00024L2.25853 1.52169C2.60028 2.08091 2.9456 2.64165 3.29448 3.2038L4.14415 2.67649L4.99382 2.14918C4.64736 1.59092 4.30444 1.03408 3.9651 0.478794L3.11182 1.00024ZM6.27247 6.05393L5.43008 6.59281C6.15001 7.71819 6.88366 8.84827 7.63079 9.9822L8.46582 9.432L9.30086 8.8818C8.55866 7.75538 7.82991 6.63284 7.11485 5.51504L6.27247 6.05393ZM10.6751 12.7376L9.84737 13.2987C10.5988 14.4073 11.3628 15.5188 12.1391 16.6323L12.9594 16.0604L13.7797 15.4885C13.0085 14.3822 12.2495 13.278 11.5029 12.1766L10.6751 12.7376ZM15.2555 19.3094L14.4426 19.8917C15.219 20.9755 16.0067 22.0604 16.8056 23.1458L17.611 22.553L18.4164 21.9603C17.6226 20.8818 16.8398 19.8038 16.0685 18.727L15.2555 19.3094ZM20.0074 25.7654L19.2098 26.3685C20.0111 27.4284 20.823 28.4882 21.6451 29.547L22.435 28.9337L23.2248 28.3204C22.408 27.2684 21.6014 26.2155 20.8051 25.1623L20.0074 25.7654ZM24.9239 32.0966L24.1421 32.7201C24.9698 33.7579 25.8072 34.7942 26.6541 35.8284L27.4278 35.1948L28.2014 34.5611C27.36 33.5338 26.528 32.5042 25.7057 31.4731L24.9239 32.0966ZM29.9867 38.2775L29.2215 38.9213C30.0817 39.9439 30.9513 40.9637 31.8299 41.9801L32.5864 41.3261L33.3429 40.6722C32.4702 39.6626 31.6065 38.6496 30.7519 37.6338L29.9867 38.2775ZM35.2195 44.3309L34.4719 44.9951C35.3614 45.9963 36.2596 46.9937 37.1665 47.9864L37.9048 47.312L38.6432 46.6376C37.7426 45.6517 36.8505 44.6612 35.9671 43.6668L35.2195 44.3309ZM40.6204 50.2433L39.8916 50.928C40.8072 51.9024 41.731 52.8718 42.663 53.8355L43.3818 53.1403L44.1007 52.4451C43.1754 51.4884 42.2582 50.526 41.3492 49.5585L40.6204 50.2433ZM46.188 55.9996L45.4795 56.7053C46.423 57.6526 47.3744 58.5937 48.3335 59.528L49.0313 58.8117L49.7291 58.0953C48.7773 57.1682 47.833 56.2342 46.8965 55.2939L46.188 55.9996ZM51.9205 61.5829L51.2339 62.3099C52.2077 63.2295 53.189 64.1417 54.1777 65.046L54.8526 64.308L55.5275 63.5701C54.5467 62.6731 53.5732 61.7682 52.6071 60.8558L51.9205 61.5829ZM57.8276 66.9845L57.1649 67.7334C58.1681 68.621 59.1784 69.5001 60.1959 70.3701L60.8458 69.6101L61.4956 68.85C60.4869 67.9875 59.4851 67.1158 58.4903 66.2356L57.8276 66.9845ZM63.9128 72.1866L63.2763 72.9579C64.3101 73.811 65.3508 74.6543 66.3984 75.4872L67.0208 74.7045L67.6432 73.9218C66.6052 73.0965 65.5739 72.2608 64.5492 71.4153L63.9128 72.1866ZM70.1765 77.1662L69.5689 77.9605C70.6355 78.7765 71.7089 79.5814 72.7887 80.3747L73.3808 79.5688L73.9728 78.7629C72.9036 77.9774 71.8406 77.1802 70.7841 76.372L70.1765 77.1662ZM76.6234 81.9013L76.0477 82.719C77.1478 83.4935 78.2544 84.2557 79.3673 85.0048L79.9257 84.1752L80.4841 83.3457C79.383 82.6045 78.288 81.8503 77.1991 81.0836L76.6234 81.9013ZM83.2682 86.373L82.728 87.2145C83.8577 87.9397 84.9935 88.6512 86.1354 89.3482L86.6564 88.4947L87.1775 87.6412C86.0487 86.9521 84.9256 86.2487 83.8084 85.5315L83.2682 86.373ZM90.1024 90.5432L89.6016 91.4088C90.763 92.0806 91.9303 92.7372 93.1033 93.378L93.5827 92.5004L94.0621 91.6228C92.9037 90.99 91.7506 90.3414 90.6031 89.6776L90.1024 90.5432ZM97.1246 94.377L96.6678 95.2666C97.8646 95.8811 99.0671 96.4787 100.275 97.0589L100.708 96.1574L101.141 95.256C99.9492 94.6837 98.7626 94.0939 97.5813 93.4874L97.1246 94.377ZM104.333 97.8371L103.925 98.7502C105.156 99.3002 106.393 99.8316 107.636 100.344L108.017 99.4192L108.398 98.4947C107.174 97.9901 105.955 97.4663 104.74 96.924L104.333 97.8371ZM111.731 100.886L111.378 101.822C112.639 102.298 113.905 102.754 115.176 103.189L115.5 102.243L115.824 101.297C114.573 100.869 113.326 100.42 112.084 99.9507L111.731 100.886ZM119.306 103.477L119.013 104.434C120.299 104.828 121.59 105.2 122.886 105.55L123.146 104.584L123.407 103.619C122.133 103.275 120.864 102.909 119.599 102.521L119.306 103.477ZM127.03 105.561L126.803 106.535C128.114 106.84 129.429 107.121 130.748 107.379L130.939 106.397L131.131 105.416C129.836 105.163 128.544 104.886 127.257 104.587L127.03 105.561ZM134.879 107.091L134.724 108.079C136.054 108.288 137.388 108.472 138.726 108.63L138.843 107.637L138.96 106.644C137.648 106.489 136.339 106.308 135.034 106.104L134.879 107.091ZM142.823 108.029L142.744 109.026C144.084 109.131 145.427 109.211 146.774 109.263L146.813 108.264L146.852 107.265C145.532 107.213 144.215 107.135 142.901 107.032L142.823 108.029ZM150.823 108.338L150.824 109.338C152.163 109.336 153.505 109.307 154.85 109.25L154.807 108.25L154.765 107.251C153.447 107.307 152.133 107.336 150.821 107.338L150.823 108.338ZM158.805 107.998L158.889 108.994C160.226 108.882 161.565 108.742 162.907 108.573L162.782 107.581L162.657 106.589C161.343 106.754 160.031 106.891 158.722 107.001L158.805 107.998ZM166.729 107.001L166.894 107.988C168.226 107.764 169.559 107.512 170.894 107.231L170.688 106.252L170.482 105.274C169.173 105.549 167.867 105.796 166.563 106.015L166.729 107.001ZM174.552 105.357L174.797 106.326C176.096 105.997 177.397 105.64 178.699 105.255L178.415 104.296L178.131 103.337C176.855 103.715 175.58 104.065 174.306 104.387L174.552 105.357ZM182.242 103.08L182.564 104.027C183.818 103.601 185.073 103.148 186.33 102.668L185.973 101.734L185.615 100.8C184.383 101.271 183.151 101.715 181.921 102.133L182.242 103.08ZM189.709 100.224L190.101 101.144C191.324 100.623 192.548 100.075 193.772 99.5007L193.347 98.5955L192.923 97.6902C191.72 98.2545 190.518 98.7923 189.317 99.3038L189.709 100.224ZM196.917 96.8438L197.373 97.7338C198.573 97.1186 199.774 96.4771 200.976 95.8089L200.489 94.935L200.003 94.0611C198.822 94.7184 197.641 95.3491 196.461 95.9538L196.917 96.8438ZM203.921 92.953L204.435 93.8108C205.57 93.1304 206.706 92.4256 207.842 91.6963L207.301 90.8548L206.761 90.0134C205.643 90.7317 204.524 91.4255 203.407 92.0952L203.921 92.953ZM210.683 88.6093L211.249 89.4339C212.335 88.6891 213.421 87.9215 214.506 87.1307L213.917 86.3224L213.329 85.5141C212.258 86.2939 211.188 87.0507 210.118 87.7846L210.683 88.6093ZM217.093 83.9416L217.704 84.7335C218.769 83.9119 219.835 83.0677 220.9 82.2005L220.268 81.4251L219.637 80.6496C218.585 81.5058 217.534 82.339 216.483 83.1496L217.093 83.9416ZM223.337 78.8615L223.987 79.6208C224.981 78.769 225.975 77.8969 226.968 77.0042L226.3 76.2604L225.632 75.5166C224.65 76.3989 223.668 77.2606 222.686 78.1021L223.337 78.8615ZM229.262 73.5362L229.947 74.2644C230.935 73.3347 231.922 72.3844 232.909 71.4132L232.207 70.7005L231.506 69.9878C230.53 70.9487 229.553 71.8886 228.576 72.808L229.262 73.5362ZM234.959 67.9356L235.675 68.6339C236.597 67.6891 237.518 66.7258 238.438 65.744L237.709 65.0601L236.979 64.3762C236.068 65.3485 235.156 66.3021 234.243 67.2374L234.959 67.9356ZM240.455 62.0727L241.197 62.7423C242.092 61.75 242.986 60.7397 243.88 59.7115L243.125 59.0556L242.37 58.3997C241.485 59.4188 240.599 60.4199 239.712 61.403L240.455 62.0727ZM245.669 56.0763L246.435 56.7192C247.286 55.7052 248.136 54.6747 248.986 53.6274L248.209 52.9974L247.433 52.3674C246.59 53.4061 245.747 54.4281 244.903 55.4334L245.669 56.0763ZM250.746 49.818L251.533 50.4353C252.357 49.3851 253.18 48.319 254.003 47.2367L253.207 46.6316L252.41 46.0265C251.594 47.1007 250.777 48.1587 249.959 49.2007L250.746 49.818ZM255.552 43.4987L256.357 44.0923C257.141 43.0294 257.924 41.9517 258.707 40.859L257.894 40.2768L257.081 39.6946C256.304 40.7797 255.526 41.8498 254.747 42.9051L255.552 43.4987ZM260.231 36.965L261.052 37.5361C261.827 36.422 262.601 35.2931 263.374 34.1492L262.546 33.5891L261.718 33.029C260.949 34.1656 260.18 35.2873 259.41 36.394L260.231 36.965ZM264.706 30.3524L265.541 30.9024C266.262 29.807 266.983 28.6984 267.702 27.5765L266.861 27.0365L266.019 26.4965C265.304 27.6118 264.587 28.7137 263.87 29.8024L264.706 30.3524ZM269.012 23.6407L269.86 24.1709C270.578 23.0224 271.295 21.8604 272.012 20.6849L271.158 20.1644L270.304 19.6439C269.591 20.8129 268.878 21.9684 268.164 23.1105L269.012 23.6407ZM273.225 16.7322L274.084 17.2435C274.748 16.1286 275.41 15.002 276.072 13.8636L275.208 13.361L274.343 12.8583C273.685 13.991 273.025 15.1118 272.366 16.2209L273.225 16.7322ZM277.186 9.91885L278.056 10.4129C278.716 9.2508 279.375 8.07684 280.034 6.89092L279.16 6.40534L278.286 5.91976C277.63 7.10009 276.974 8.26841 276.317 9.42481L277.186 9.91885ZM281.129 2.81994L282.008 3.29718C282.336 2.69226 282.665 2.08433 282.993 1.47337L282.112 1.00024L281.231 0.527117C280.904 1.13534 280.577 1.74053 280.25 2.34269L281.129 2.81994Z" fill="#3B71FE"/>
</svg>
