<svg width="110" height="463" viewBox="0 0 110 463" fill="none" xmlns="http://www.w3.org/2000/svg">
<path d="M100.075 451.719C100.627 451.72 101.074 452.168 101.073 452.721L101.058 461.721C101.057 462.273 100.609 462.72 100.056 462.719L91.0564 462.704C90.5043 462.703 90.0574 462.254 90.0583 461.702C90.0593 461.15 90.508 460.703 91.0603 460.704L97.655 460.714C97.2489 460.302 96.8433 459.89 96.4402 459.479L97.8699 458.08C98.2656 458.484 98.6637 458.888 99.0622 459.292L99.073 452.717C99.0741 452.165 99.5228 451.718 100.075 451.719ZM86.78 446.325C88.5628 448.287 90.3781 450.248 92.2263 452.207L90.7712 453.579C88.9146 451.611 87.0906 449.642 85.2996 447.671L86.78 446.325ZM76.1062 434.107C77.8333 436.166 79.5953 438.225 81.3923 440.281L79.8865 441.597C78.0807 439.53 76.3097 437.462 74.574 435.393L76.1062 434.107ZM65.9968 421.535C67.638 423.667 69.3151 425.798 71.029 427.929L69.4714 429.182C67.7485 427.04 66.0619 424.898 64.4119 422.755L65.9968 421.535ZM56.4695 408.582C57.9868 410.745 59.5407 412.907 61.1306 415.069L59.5193 416.254C57.9206 414.08 56.3586 411.905 54.8328 409.73L56.4695 408.582ZM47.4714 395.094C48.8948 397.342 50.3557 399.59 51.8552 401.838L50.1912 402.948C48.6828 400.687 47.213 398.425 45.781 396.164L47.4714 395.094ZM39.154 381.214C40.4746 383.549 41.8348 385.885 43.2351 388.221L41.5193 389.249C40.1105 386.899 38.7426 384.548 37.4138 382.199L39.154 381.214ZM31.571 366.959C32.7758 369.374 34.0218 371.792 35.3093 374.21L33.5437 375.149C32.248 372.716 30.9937 370.284 29.781 367.853L31.571 366.959ZM24.7634 352.338C25.827 354.796 26.9322 357.256 28.0789 359.718L26.2654 360.562C25.1111 358.083 23.9984 355.607 22.9275 353.132L24.7634 352.338ZM18.7761 337.367C19.6952 339.868 20.6556 342.373 21.658 344.879L19.8015 345.621C18.7922 343.097 17.8247 340.576 16.8992 338.058L18.7761 337.367ZM13.6531 322.079C14.4239 324.622 15.2363 327.169 16.0906 329.719L14.1941 330.354C13.3336 327.786 12.5154 325.221 11.739 322.659L13.6531 322.079ZM9.42456 306.488C10.045 309.078 10.7075 311.673 11.4119 314.271L9.4812 314.794C8.77169 312.176 8.10524 309.563 7.48022 306.954L9.42456 306.488ZM6.13256 290.673C6.59816 293.302 7.10463 295.937 7.65405 298.577L5.69604 298.984C5.14256 296.325 4.63189 293.67 4.16284 291.021L6.13256 290.673ZM3.79467 274.694C4.10219 277.352 4.45107 280.016 4.84155 282.687L2.86206 282.977C2.46868 280.286 2.11815 277.602 1.80835 274.925L3.79467 274.694ZM2.41967 258.607C2.56816 261.282 2.75619 263.965 2.98608 266.655L0.993893 266.825C0.762309 264.115 0.572186 261.413 0.422603 258.719L2.41967 258.607ZM2.00171 242.468C1.99229 245.149 2.02178 247.839 2.09155 250.538L0.0925254 250.59C0.0222486 247.871 -0.0077753 245.161 0.00170506 242.461L2.00171 242.468ZM2.52612 226.331C2.36178 229.008 2.23516 231.696 2.14721 234.395L0.148189 234.329C0.236764 231.612 0.364522 228.904 0.530025 226.208L2.52612 226.331ZM3.97143 210.248C3.65663 212.913 3.37716 215.59 3.13549 218.278L1.14331 218.099C1.38665 215.392 1.66815 212.697 1.9851 210.014L3.97143 210.248ZM6.30444 194.269C5.84481 196.912 5.41921 199.57 5.02905 202.24L3.05053 201.951C3.44332 199.263 3.87205 196.588 4.33471 193.927L6.30444 194.269ZM9.49096 178.436C8.89296 181.051 8.32721 183.682 7.79467 186.326L5.83374 185.932C6.36973 183.27 6.93994 180.622 7.54174 177.99L9.49096 178.436ZM13.4919 162.786C12.7625 165.367 12.0625 167.964 11.3943 170.577L9.45678 170.082C10.1292 167.453 10.8332 164.839 11.5671 162.242L13.4919 162.786ZM18.2654 147.354C17.4117 149.895 16.5858 152.453 15.7888 155.028L13.8777 154.438C14.6795 151.846 15.5111 149.272 16.3699 146.717L18.2654 147.354ZM23.7703 132.168C22.7996 134.662 21.854 137.177 20.9353 139.71L19.0554 139.028C19.9795 136.48 20.9309 133.952 21.907 131.443L23.7703 132.168ZM29.9753 117.237C28.8925 119.686 27.8324 122.157 26.7966 124.648L24.9499 123.881C25.9915 121.375 27.0574 118.89 28.1462 116.428L29.9753 117.237ZM36.8396 102.594C35.65 104.994 34.4803 107.419 33.3328 109.866L31.5212 109.018C32.6751 106.557 33.8516 104.119 35.0476 101.705L36.8396 102.594ZM44.3289 88.2578C43.037 90.6078 41.7628 92.9846 40.5076 95.3867L38.7351 94.46C39.9968 92.0453 41.2784 89.6569 42.5769 87.2949L44.3289 88.2578ZM52.4148 74.251C51.0243 76.5479 49.6484 78.8753 48.2888 81.2305L46.5564 80.2305C47.9229 77.8632 49.3063 75.5245 50.7039 73.2158L52.4148 74.251ZM61.0701 60.5977C59.5864 62.8349 58.1143 65.1057 56.655 67.4082L54.9656 66.3369C56.4322 64.0228 57.9119 61.7407 59.4031 59.4922L61.0701 60.5977ZM70.2693 47.3271C68.7059 49.4854 67.15 51.6809 65.6033 53.9121L63.9597 52.7725C65.5143 50.5299 67.0788 48.3236 68.6501 46.1543L70.2693 47.3271ZM80.0251 34.4385C78.3792 36.5197 76.7357 38.6431 75.0974 40.8076L73.5027 39.6006C75.1496 37.4247 76.802 35.2897 78.4568 33.1973L80.0251 34.4385ZM90.3503 21.9551C88.6079 23.9681 86.862 26.0311 85.116 28.1426L83.5749 26.8682C85.3306 24.7451 87.0863 22.6709 88.8386 20.6465L90.3503 21.9551ZM101.188 10.0156C99.3654 11.9278 97.5316 13.9 95.6902 15.9297L94.2087 14.5859C96.0611 12.5442 97.9066 10.56 99.741 8.63574L101.188 10.0156ZM109.695 1.4375C108.756 2.34594 107.813 3.27206 106.865 4.21484L105.455 2.79688C106.409 1.84764 107.359 0.91494 108.304 0L109.695 1.4375Z" fill="#3B71FE"/>
</svg>
