<svg width="153" height="301" viewBox="0 0 153 301" fill="none" xmlns="http://www.w3.org/2000/svg">
<path d="M0.394899 291.784C-0.0447306 292.118 -0.130132 292.745 0.20415 293.185L5.65159 300.349C5.98587 300.789 6.61325 300.874 7.05288 300.54C7.49251 300.205 7.57791 299.578 7.24363 299.138L2.40146 292.77L8.76962 287.928C9.20925 287.594 9.29465 286.966 8.96037 286.527C8.62608 286.087 7.99871 286.002 7.55908 286.336L0.394899 291.784ZM1.00017 292.58L0.865291 293.57C1.53307 293.661 2.20132 293.746 2.86996 293.825L2.98675 292.832L3.10354 291.838C2.44693 291.761 1.79075 291.678 1.13505 291.589L1.00017 292.58ZM6.96692 293.227L6.88607 294.223C8.22602 294.332 9.56702 294.417 10.9086 294.478L10.9539 293.479L10.9991 292.48C9.68116 292.42 8.36386 292.337 7.04776 292.23L6.96692 293.227ZM14.9489 293.589L14.9387 294.589C16.2829 294.603 17.6271 294.593 18.9708 294.56L18.9463 293.56L18.9218 292.56C17.601 292.593 16.2799 292.603 14.959 292.589L14.9489 293.589ZM22.9413 293.394L22.9999 294.392C24.3401 294.313 25.6791 294.212 27.0167 294.088L26.9245 293.092L26.8324 292.096C25.517 292.218 24.2002 292.318 22.8826 292.395L22.9413 293.394ZM30.8986 292.658L31.0236 293.65C32.3568 293.482 33.6879 293.292 35.0164 293.08L34.8591 292.093L34.7018 291.105C33.3946 291.313 32.085 291.5 30.7735 291.666L30.8986 292.658ZM38.7916 291.401L38.9804 292.383C40.2988 292.13 41.6142 291.855 42.926 291.56L42.7063 290.584L42.4866 289.609C41.1952 289.899 39.9004 290.17 38.6027 290.419L38.7916 291.401ZM46.5942 289.645L46.8441 290.613C48.1417 290.278 49.4353 289.923 50.7243 289.548L50.445 288.588L50.1656 287.628C48.896 287.997 47.6221 288.347 46.3443 288.677L46.5942 289.645ZM54.2691 287.412L54.5773 288.364C55.8533 287.95 57.1244 287.518 58.39 287.066L58.0537 286.124L57.7174 285.182C56.4704 285.628 55.2181 286.054 53.961 286.461L54.2691 287.412ZM61.7953 284.726L62.1591 285.657C63.4096 285.169 64.6542 284.662 65.8924 284.137L65.5018 283.216L65.1112 282.296C63.8908 282.813 62.6641 283.313 61.4316 283.794L61.7953 284.726ZM69.1576 281.603L69.5743 282.512C70.7926 281.953 72.0041 281.377 73.2081 280.783L72.7658 279.886L72.3235 278.99C71.1363 279.575 69.9419 280.143 68.7408 280.694L69.1576 281.603ZM76.3305 278.065L76.7978 278.95C77.9823 278.323 79.1589 277.68 80.3273 277.02L79.8355 276.15L79.3438 275.279C78.1915 275.93 77.0311 276.564 75.8631 277.181L76.3305 278.065ZM83.2882 274.136L83.8039 274.993C84.9542 274.301 86.0958 273.592 87.2282 272.867L86.6891 272.025L86.1501 271.183C85.0331 271.898 83.9071 272.597 82.7726 273.279L83.2882 274.136ZM90.0233 269.827L90.5851 270.654C91.6944 269.901 92.7941 269.132 93.8837 268.347L93.2995 267.536L92.7154 266.724C91.6405 267.498 90.5557 268.256 89.4615 268.999L90.0233 269.827ZM96.5153 265.154L97.1213 265.95C98.1871 265.138 99.2425 264.311 100.287 263.469L99.6595 262.691L99.0321 261.912C98.0018 262.742 96.9607 263.558 95.9093 264.359L96.5153 265.154ZM102.739 260.14L103.387 260.902C104.409 260.032 105.419 259.147 106.417 258.249L105.749 257.506L105.08 256.762C104.095 257.648 103.098 258.521 102.09 259.379L102.739 260.14ZM108.683 254.793L109.371 255.518C110.344 254.594 111.304 253.657 112.252 252.706L111.543 252L110.835 251.294C109.9 252.232 108.953 253.157 107.994 254.068L108.683 254.793ZM114.327 249.129L115.054 249.815C115.975 248.84 116.882 247.851 117.775 246.85L117.029 246.185L116.283 245.519C115.402 246.506 114.507 247.481 113.6 248.443L114.327 249.129ZM119.65 243.165L120.414 243.81C121.279 242.784 122.13 241.746 122.967 240.697L122.185 240.073L121.403 239.45C120.578 240.485 119.739 241.509 118.885 242.52L119.65 243.165ZM124.632 236.913L125.431 237.514C126.237 236.441 127.029 235.357 127.805 234.262L126.989 233.684L126.173 233.106C125.408 234.186 124.628 235.255 123.832 236.312L124.632 236.913ZM129.253 230.389L130.085 230.943C130.829 229.827 131.556 228.699 132.268 227.561L131.42 227.031L130.572 226.501C129.871 227.622 129.153 228.734 128.42 229.834L129.253 230.389ZM133.49 223.609L134.353 224.114C135.03 222.956 135.691 221.788 136.335 220.61L135.457 220.13L134.579 219.651C133.945 220.812 133.294 221.963 132.627 223.104L133.49 223.609ZM137.32 216.595L138.211 217.048C138.819 215.851 139.41 214.644 139.982 213.427L139.077 213.002L138.173 212.576C137.609 213.774 137.027 214.963 136.428 216.142L137.32 216.595ZM140.723 209.361L141.64 209.759C142.174 208.529 142.69 207.289 143.186 206.041L142.257 205.672L141.328 205.302C140.839 206.531 140.331 207.752 139.806 208.963L140.723 209.361ZM143.678 201.93L144.618 202.27C145.074 201.011 145.511 199.742 145.928 198.466L144.978 198.155L144.027 197.845C143.617 199.101 143.187 200.349 142.738 201.59L143.678 201.93ZM146.159 194.339L147.119 194.619C147.496 193.329 147.853 192.031 148.19 190.726L147.221 190.476L146.253 190.227C145.922 191.511 145.57 192.788 145.199 194.058L146.159 194.339ZM148.155 186.599L149.131 186.817C149.423 185.51 149.695 184.195 149.947 182.874L148.964 182.687L147.982 182.5C147.735 183.8 147.467 185.094 147.179 186.38L148.155 186.599ZM149.649 178.735L150.637 178.89C150.843 177.57 151.029 176.245 151.193 174.913L150.2 174.791L149.208 174.668C149.046 175.978 148.864 177.283 148.661 178.581L149.649 178.735ZM150.624 170.819L151.62 170.909C151.741 169.569 151.84 168.223 151.917 166.871L150.919 166.814L149.92 166.757C149.844 168.087 149.747 169.411 149.628 170.73L150.624 170.819ZM151.08 162.84L152.08 162.864C152.113 161.527 152.124 160.186 152.112 158.84L151.112 158.848L150.112 158.856C150.123 160.181 150.113 161.5 150.081 162.815L151.08 162.84ZM151.013 154.829L152.012 154.788C151.958 153.458 151.881 152.124 151.783 150.785L150.786 150.859L149.788 150.932C149.885 152.249 149.96 153.561 150.014 154.87L151.013 154.829ZM150.43 146.888L151.424 146.783C151.283 145.445 151.119 144.103 150.933 142.758L149.942 142.895L148.952 143.032C149.135 144.356 149.296 145.677 149.435 146.993L150.43 146.888ZM149.334 138.959L150.32 138.79C150.096 137.48 149.851 136.167 149.585 134.851L148.605 135.049L147.624 135.248C147.887 136.544 148.128 137.837 148.348 139.127L149.334 138.959ZM147.745 131.124L148.719 130.895C148.412 129.592 148.085 128.287 147.735 126.98L146.769 127.239L145.803 127.497C146.147 128.784 146.47 130.07 146.772 131.352L147.745 131.124ZM145.69 123.429L146.648 123.142C146.265 121.861 145.86 120.578 145.434 119.293L144.485 119.607L143.536 119.922C143.955 121.188 144.354 122.453 144.732 123.716L145.69 123.429ZM143.154 115.78L144.093 115.437C143.645 114.204 143.176 112.97 142.687 111.735L141.757 112.102L140.827 112.47C141.309 113.689 141.772 114.906 142.214 116.122L143.154 115.78ZM140.24 108.418L141.16 108.024C140.631 106.787 140.081 105.548 139.511 104.308L138.602 104.726L137.694 105.144C138.256 106.367 138.799 107.59 139.321 108.811L140.24 108.418ZM136.886 101.121L137.783 100.68C137.202 99.4987 136.602 98.3172 135.983 97.1351L135.097 97.5991L134.211 98.0632C134.823 99.2304 135.415 100.397 135.989 101.563L136.886 101.121ZM133.194 94.0738L134.068 93.5878C133.41 92.405 132.733 91.2219 132.036 90.0387L131.175 90.546L130.313 91.0533C131.001 92.2225 131.67 93.3913 132.32 94.5597L133.194 94.0738ZM129.135 87.1717L129.985 86.6445C129.29 85.5243 128.577 84.4041 127.847 83.284L127.009 83.8303L126.172 84.3766C126.894 85.4841 127.598 86.5915 128.285 87.6988L129.135 87.1717ZM124.776 80.4891L125.601 79.9242C124.835 78.8045 124.05 77.685 123.248 76.5659L122.435 77.1488L121.623 77.7317C122.417 78.839 123.193 79.9464 123.951 81.0539L124.776 80.4891ZM120.117 73.9873L120.918 73.3879C120.128 72.3339 119.323 71.2804 118.5 70.2274L117.712 70.8429L116.924 71.4583C117.738 72.5008 118.536 73.5437 119.317 74.5868L120.117 73.9873ZM115.208 67.7012L115.984 67.0702C115.128 66.0184 114.256 64.9673 113.367 63.9169L112.604 64.563L111.84 65.2091C112.721 66.2496 113.585 67.2906 114.432 68.3322L115.208 67.7012ZM110.03 61.5782L110.781 60.9183C109.916 59.9332 109.036 58.9488 108.14 57.9654L107.401 58.6386L106.661 59.3118C107.549 60.2866 108.421 61.262 109.278 62.2381L110.03 61.5782ZM104.681 55.7036L105.409 55.0175C104.483 54.0358 103.542 53.055 102.585 52.0753L101.87 52.7738L101.154 53.4723C102.103 54.4439 103.036 55.4164 103.953 56.3896L104.681 55.7036ZM99.0372 49.9197L99.7411 49.2094C98.8169 48.2935 97.8792 47.3786 96.9277 46.4647L96.235 47.1859L95.5422 47.9071C96.4862 48.8138 97.4165 49.7215 98.3332 50.63L99.0372 49.9197ZM93.3505 44.458L94.032 43.7262C93.053 42.8144 92.0602 41.9038 91.0535 40.9943L90.3831 41.7364L89.7128 42.4784C90.7121 43.3811 91.6974 44.285 92.669 45.1898L93.3505 44.458ZM87.3322 39.0216L87.9914 38.2696C87.0021 37.4024 86 36.5363 84.985 35.6715L84.3364 36.4326L83.6879 37.1938C84.6958 38.0526 85.6908 38.9126 86.673 39.7735L87.3322 39.0216ZM81.3313 33.9072L81.9695 33.1373C80.952 32.2938 79.9219 31.4515 78.8794 30.6105L78.2515 31.3888L77.6236 32.1671C78.6593 33.0026 79.6825 33.8393 80.6931 34.6771L81.3313 33.9072ZM75.0964 28.8777L75.714 28.0912C74.6464 27.2528 73.566 26.4157 72.473 25.58L71.8656 26.3744L71.2582 27.1688C72.3445 27.9993 73.418 28.8311 74.4788 29.6642L75.0964 28.8777ZM68.7012 23.9855L69.2989 23.1837C68.255 22.4056 67.2 21.6287 66.1337 20.8531L65.5455 21.6618L64.9573 22.4705C66.0172 23.2415 67.066 24.0138 68.1035 24.7872L68.7012 23.9855ZM62.3223 19.3458L62.9012 18.5303C61.8124 17.7574 60.7123 16.9858 59.6008 16.2157L59.0313 17.0376L58.4617 17.8596C59.567 18.6255 60.6609 19.3927 61.7435 20.1612L62.3223 19.3458ZM55.6719 14.7378L56.2322 13.9094C55.1178 13.1556 53.9924 12.4032 52.8558 11.6522L52.3046 12.4866L51.7533 13.3209C52.8838 14.0679 54.0032 14.8163 55.1116 15.566L55.6719 14.7378ZM49.0423 10.3548L49.5851 9.51494C48.4848 8.80386 47.3743 8.09409 46.2538 7.38572L45.7194 8.23097L45.1851 9.07625C46.3001 9.78109 47.4049 10.4873 48.4996 11.1947L49.0423 10.3548ZM42.3355 6.11527L42.8614 5.26476C41.7205 4.55919 40.5693 3.85505 39.4078 3.15235L38.8902 4.00794L38.3726 4.86355C39.5285 5.56289 40.6741 6.26366 41.8095 6.96578L42.3355 6.11527ZM35.3832 1.9092L35.8926 1.04869C35.3014 0.698748 34.7077 0.34919 34.1114 9.58028e-06L33.6061 0.862938L33.1008 1.7259C33.6944 2.07347 34.2853 2.42143 34.8738 2.76974L35.3832 1.9092Z" fill="#3B71FE"/>
</svg>
