<svg width="283" height="110" viewBox="0 0 283 110" fill="none" xmlns="http://www.w3.org/2000/svg">
<path d="M279.646 109.31C280.183 109.44 280.723 109.11 280.853 108.573L282.965 99.8241C283.094 99.2872 282.764 98.747 282.227 98.6174C281.69 98.4878 281.15 98.8179 281.021 99.3548L279.143 107.131L271.367 105.254C270.83 105.125 270.29 105.455 270.16 105.992C270.03 106.529 270.361 107.069 270.897 107.199L279.646 109.31ZM279.881 108.338L280.734 107.817C280.392 107.258 280.047 106.697 279.698 106.135L278.849 106.662L277.999 107.189C278.345 107.748 278.688 108.304 279.028 108.86L279.881 108.338ZM276.72 103.285L277.563 102.746C276.843 101.62 276.109 100.49 275.362 99.3562L274.527 99.9064L273.692 100.457C274.434 101.583 275.163 102.706 275.878 103.823L276.72 103.285ZM272.318 96.6008L273.145 96.0397C272.394 94.9311 271.63 93.8196 270.854 92.7061L270.033 93.278L269.213 93.8499C269.984 94.9562 270.743 96.0605 271.49 97.1619L272.318 96.6008ZM267.737 90.0291L268.55 89.4467C267.774 88.363 266.986 87.278 266.187 86.1926L265.382 86.7854L264.576 87.3782C265.37 88.4567 266.153 89.5347 266.924 90.6114L267.737 90.0291ZM262.985 83.573L263.783 82.9699C262.982 81.91 262.17 80.8503 261.348 79.7915L260.558 80.4047L259.768 81.018C260.585 82.07 261.391 83.123 262.188 84.1761L262.985 83.573ZM258.069 77.2418L258.851 76.6183C258.023 75.5805 257.186 74.5442 256.339 73.5101L255.565 74.1437L254.791 74.7773C255.633 75.8047 256.465 76.8342 257.287 77.8653L258.069 77.2418ZM253.006 71.0609L253.771 70.4171C252.911 69.3946 252.041 68.3748 251.163 67.3583L250.406 68.0123L249.65 68.6663C250.522 69.6759 251.386 70.6889 252.241 71.7047L253.006 71.0609ZM247.773 65.0075L248.521 64.3434C247.631 63.3421 246.733 62.3448 245.826 61.352L245.088 62.0264L244.349 62.7009C245.25 63.6868 246.142 64.6772 247.026 65.6717L247.773 65.0075ZM242.372 59.0951L243.101 58.4104C242.185 57.436 241.262 56.4667 240.33 55.503L239.611 56.1981L238.892 56.8933C239.817 57.85 240.734 58.8124 241.644 59.7799L242.372 59.0951ZM236.805 53.3388L237.513 52.6331C236.57 51.6858 235.618 50.7447 234.659 49.8105L233.961 50.5268L233.264 51.2431C234.215 52.1703 235.16 53.1043 236.096 54.0445L236.805 53.3388ZM231.072 47.7555L231.759 47.0285C230.785 46.1089 229.804 45.1967 228.815 44.2925L228.14 45.0304L227.465 45.7683C228.446 46.6653 229.419 47.5702 230.386 48.4826L231.072 47.7555ZM225.165 42.3539L225.828 41.605C224.825 40.7174 223.814 39.8383 222.797 38.9683L222.147 39.7284L221.497 40.4884C222.506 41.3509 223.508 42.2226 224.502 43.1028L225.165 42.3539ZM219.08 37.1518L219.716 36.3805C218.683 35.5275 217.642 34.6842 216.594 33.8512L215.972 34.6339L215.35 35.4166C216.387 36.2419 217.419 37.0776 218.443 37.9231L219.08 37.1518ZM212.816 32.1722L213.424 31.378C212.357 30.562 211.284 29.757 210.204 28.9637L209.612 29.7696L209.02 30.5756C210.089 31.361 211.152 32.1582 212.209 32.9664L212.816 32.1722ZM206.369 27.4371L206.945 26.6195C205.845 25.8449 204.738 25.0827 203.625 24.3336L203.067 25.1632L202.509 25.9928C203.61 26.7339 204.705 27.4881 205.794 28.2548L206.369 27.4371ZM199.724 22.9654L200.265 22.1239C199.135 21.3987 197.999 20.6872 196.857 19.9902L196.336 20.8437L195.815 21.6973C196.944 22.3863 198.067 23.0897 199.184 23.8069L199.724 22.9654ZM192.89 18.7952L193.391 17.9296C192.23 17.2578 191.062 16.6012 189.889 15.9604L189.41 16.838L188.931 17.7156C190.089 18.3484 191.242 18.997 192.39 19.6608L192.89 18.7952ZM185.868 14.9614L186.325 14.0718C185.128 13.4573 183.926 12.8597 182.718 12.2796L182.285 13.181L181.852 14.0825C183.043 14.6547 184.23 15.2445 185.411 15.851L185.868 14.9614ZM178.66 11.5013L179.068 10.5882C177.836 10.0383 176.599 9.50684 175.357 8.99468L174.976 9.91919L174.595 10.8437C175.819 11.3484 177.038 11.8722 178.252 12.4144L178.66 11.5013ZM171.262 8.45216L171.615 7.51663C170.354 7.0404 169.088 6.58439 167.816 6.14929L167.492 7.09541L167.169 8.04153C168.42 8.46975 169.666 8.91869 170.908 9.38768L171.262 8.45216ZM163.687 5.86101L163.98 4.90488C162.693 4.51084 161.403 4.1386 160.107 3.78887L159.846 4.75431L159.586 5.71975C160.859 6.06354 162.129 6.42956 163.394 6.81714L163.687 5.86101ZM155.963 3.77778L156.189 2.80384C154.879 2.4987 153.564 2.217 152.245 1.95948L152.053 2.94095L151.862 3.92241C153.157 4.17528 154.448 4.45194 155.736 4.75173L155.963 3.77778ZM148.114 2.24697L148.269 1.25907C146.939 1.05027 145.605 0.866468 144.267 0.708394L144.15 1.70149L144.032 2.69458C145.345 2.84963 146.653 3.02996 147.959 3.23487L148.114 2.24697ZM140.17 1.3095L140.249 0.312589C138.909 0.207036 137.565 0.127736 136.218 0.075406L136.18 1.07465L136.141 2.0739C137.461 2.12519 138.778 2.20292 140.092 2.30641L140.17 1.3095ZM132.17 1.00003L132.168 2.75759e-05C130.83 0.00232402 129.488 0.0317125 128.143 0.0888948L128.185 1.08799L128.228 2.08709C129.545 2.03107 130.86 2.00227 132.172 2.00003L132.17 1.00003ZM124.187 1.34072L124.104 0.344228C122.767 0.456517 121.427 0.59673 120.086 0.765523L120.21 1.7577L120.335 2.74988C121.65 2.58455 122.962 2.44721 124.271 2.33721L124.187 1.34072ZM116.264 2.33699L116.098 1.35079C114.767 1.57425 113.434 1.8263 112.099 2.10757L112.305 3.0861L112.511 4.06462C113.819 3.78903 115.125 3.5421 116.429 3.32319L116.264 2.33699ZM108.441 3.9818L108.196 3.01237C106.896 3.34119 105.596 3.69812 104.293 4.08373L104.577 5.04257L104.861 6.00142C106.138 5.62337 107.413 5.2735 108.686 4.95124L108.441 3.9818ZM100.75 6.25854L100.429 5.31161C99.1745 5.73738 97.9192 6.19018 96.6629 6.67051L97.02 7.60457L97.3771 8.53862C98.6099 8.06728 99.8415 7.62308 101.072 7.20547L100.75 6.25854ZM93.2834 9.11461L92.8915 8.19461C91.6684 8.71565 90.4447 9.26318 89.2204 9.83768L89.6452 10.743L90.07 11.6482C91.2727 11.0839 92.4745 10.5462 93.6753 10.0346L93.2834 9.11461ZM86.0759 12.4946L85.6199 11.6046C84.4193 12.2198 83.2183 12.8613 82.017 13.5295L82.5032 14.4034L82.9893 15.2773C84.1708 14.62 85.3517 13.9893 86.5319 13.3846L86.0759 12.4946ZM79.072 16.3854L78.5581 15.5276C77.4224 16.2081 76.2866 16.9128 75.1508 17.6422L75.6911 18.4836L76.2315 19.325C77.35 18.6068 78.4683 17.9129 79.586 17.2432L79.072 16.3854ZM72.3092 20.7291L71.7435 19.9045C70.6577 20.6493 69.5719 21.4169 68.4863 22.2078L69.0752 23.016L69.664 23.8243C70.7344 23.0445 71.8047 22.2878 72.8748 21.5538L72.3092 20.7291ZM65.8994 25.3968L65.2888 24.6049C64.2232 25.4265 63.1579 26.2707 62.093 27.1379L62.7244 27.9133L63.3558 28.6888C64.4072 27.8326 65.4586 26.9994 66.51 26.1888L65.8994 25.3968ZM59.6561 30.4769L59.0054 29.7176C58.0113 30.5694 57.0175 31.4416 56.0242 32.3342L56.6926 33.078L57.361 33.8218C58.3428 32.9395 59.3247 32.0778 60.3068 31.2363L59.6561 30.4769ZM53.7311 35.8022L53.0457 35.074C52.0579 36.0037 51.0707 36.954 50.084 37.9252L50.7854 38.6379L51.4869 39.3506C52.4631 38.3898 53.4397 37.4498 54.4165 36.5304L53.7311 35.8022ZM48.0333 41.4028L47.3175 40.7046C46.3959 41.6494 45.4749 42.6126 44.5544 43.5945L45.284 44.2784L46.0136 44.9623C46.9251 43.9899 47.8369 43.0363 48.7492 42.1011L48.0333 41.4028ZM42.5379 47.2658L41.7952 46.5961C40.9004 47.5885 40.0062 48.5987 39.1128 49.6269L39.8676 50.2828L40.6225 50.9387C41.508 49.9196 42.394 48.9186 43.2805 47.9354L42.5379 47.2658ZM37.3236 53.2621L36.5576 52.6192C35.7066 53.6332 34.8562 54.6637 34.0066 55.711L34.7831 56.341L35.5597 56.971C36.4024 55.9323 37.2457 54.9103 38.0895 53.905L37.3236 53.2621ZM32.2466 59.5204L31.4598 58.9031C30.6358 59.9533 29.8125 61.0195 28.9899 62.1017L29.786 62.7068L30.5822 63.3119C31.3986 62.2378 32.2156 61.1798 33.0333 60.1378L32.2466 59.5204ZM27.4404 65.8397L26.6357 65.2461C25.8517 66.309 25.0684 67.3867 24.2859 68.4794L25.0989 69.0616L25.9119 69.6439C26.689 68.5587 27.4668 67.4886 28.2452 66.4333L27.4404 65.8397ZM22.7616 72.3734L21.9406 71.8024C21.1657 72.9164 20.3915 74.0454 19.6181 75.1893L20.4466 75.7494L21.275 76.3094C22.0435 75.1728 22.8126 74.0512 23.5825 72.9444L22.7616 72.3734ZM18.2871 78.986L17.4519 78.436C16.7306 79.5314 16.01 80.64 15.2902 81.7619L16.1318 82.3019L16.9735 82.8419C17.6891 81.7267 18.4053 80.6247 19.1223 79.536L18.2871 78.986ZM13.981 85.6977L13.1331 85.1675C12.4149 86.3161 11.6974 87.478 10.9808 88.6535L11.8347 89.174L12.6885 89.6946C13.4012 88.5255 14.1147 87.37 14.8288 86.2279L13.981 85.6977ZM9.76764 92.6062L8.90826 92.0949C8.2449 93.2098 7.58224 94.3364 6.92038 95.4748L7.78488 95.9775L8.64941 96.4801C9.30792 95.3474 9.96713 94.2266 10.627 93.1176L9.76764 92.6062ZM5.80651 99.4196L4.93707 98.9256C4.27676 100.088 3.61721 101.262 2.95849 102.448L3.83267 102.933L4.70687 103.419C5.36248 102.238 6.01886 101.07 6.67596 99.9136L5.80651 99.4196ZM1.86352 106.519L0.984736 106.041C0.656214 106.646 0.327906 107.254 -0.000188799 107.865L0.880793 108.338L1.76177 108.811C2.08843 108.203 2.41525 107.598 2.74227 106.996L1.86352 106.519Z" fill="#3B71FE"/>
</svg>
